<svg width="269" height="250" viewBox="0 0 269 250" fill="none" xmlns="http://www.w3.org/2000/svg">
<g clip-path="url(#clip0_7_123)">
<path d="M232.268 36.6116C208.581 13.0024 177.084 0 143.587 0C110.089 0 78.5965 13.0024 54.9096 36.6116C47.0953 44.4002 40.4464 53.0429 35.0355 62.3175H38.4029C40.6092 62.3175 42.4257 64.0169 42.6013 66.1733H42.7041C47.6994 57.693 53.8086 49.7891 60.9716 42.6538C83.0391 20.6586 112.381 8.54442 143.591 8.54442C174.801 8.54442 204.143 20.6586 226.21 42.6538C248.278 64.6489 260.432 93.8946 260.432 125.002C260.432 156.11 248.278 185.355 226.21 207.351C204.143 229.346 174.801 241.46 143.591 241.46C112.381 241.46 83.0391 229.346 60.9716 207.351C38.9041 185.355 26.7501 156.11 26.7501 125.002C26.7501 113.298 28.4723 101.854 31.7968 90.9654H28.3737L23.7126 88.1087C20.0754 99.9069 18.1818 112.311 18.1818 125.002C18.1818 158.39 31.227 189.779 54.9139 213.388C78.6008 236.998 110.093 250 143.591 250C177.088 250 208.581 236.998 232.268 213.388C255.955 189.779 269 158.39 269 125.002C269 91.6144 255.955 60.2251 232.268 36.6159V36.6116Z" fill="#FF7630"/>
<path d="M157.21 193.767C150.24 193.767 145.369 186.888 147.708 180.342L150.18 173.412H141.192C140.819 173.412 140.446 173.442 140.082 173.489C140.031 173.497 139.975 173.502 139.924 173.506C139.577 173.557 139.238 173.63 138.904 173.719C138.84 173.737 138.78 173.754 138.716 173.771C138.386 173.869 138.06 173.98 137.747 174.112C137.7 174.134 137.649 174.155 137.602 174.176C137.276 174.322 136.955 174.48 136.646 174.663C136.265 174.894 135.897 175.15 135.554 175.436C135.211 175.722 134.886 176.03 134.59 176.367C134.44 176.533 134.299 176.708 134.162 176.888C133.617 177.605 133.172 178.412 132.863 179.292L129.115 189.916C128.999 190.245 128.909 190.578 128.832 190.911C128.811 191.009 128.794 191.107 128.772 191.205C128.725 191.449 128.686 191.692 128.661 191.936C128.648 192.034 128.639 192.128 128.631 192.226C128.549 193.281 128.652 194.318 128.922 195.3C129.029 195.689 129.171 196.06 129.329 196.428C129.376 196.543 129.436 196.654 129.492 196.765C129.612 197.017 129.74 197.265 129.886 197.504C129.959 197.623 130.032 197.739 130.109 197.854C130.263 198.084 130.43 198.311 130.601 198.529C130.679 198.627 130.751 198.725 130.833 198.819C131.094 199.118 131.368 199.408 131.668 199.673C131.904 199.882 132.152 200.074 132.414 200.258C132.491 200.313 132.568 200.365 132.645 200.416C132.842 200.548 133.043 200.668 133.249 200.783C133.33 200.83 133.412 200.877 133.498 200.92C133.78 201.065 134.072 201.206 134.376 201.321C134.71 201.449 135.057 201.56 135.413 201.65C136.124 201.829 136.873 201.923 137.653 201.923H218.632C218.974 201.923 219.304 201.898 219.63 201.859C219.733 201.846 219.831 201.829 219.934 201.812C220.157 201.778 220.379 201.735 220.598 201.684C220.709 201.659 220.816 201.629 220.924 201.599C221.138 201.539 221.348 201.471 221.553 201.394C221.6 201.377 221.643 201.36 221.69 201.343C221.738 201.325 221.785 201.308 221.827 201.291C222.11 201.176 222.389 201.044 222.659 200.898C222.697 200.877 222.727 200.856 222.766 200.834C222.997 200.702 223.22 200.561 223.434 200.412C223.524 200.348 223.61 200.279 223.7 200.211C223.854 200.091 224.004 199.972 224.149 199.844C224.239 199.763 224.329 199.681 224.415 199.6C224.552 199.468 224.681 199.331 224.809 199.19C224.886 199.105 224.963 199.024 225.036 198.934C225.216 198.721 225.383 198.499 225.538 198.272C225.598 198.183 225.653 198.089 225.709 197.995C225.812 197.828 225.915 197.662 226.005 197.491C226.069 197.371 226.124 197.248 226.184 197.124C226.253 196.979 226.317 196.829 226.382 196.68C226.433 196.547 226.484 196.415 226.531 196.278C226.583 196.124 226.63 195.971 226.673 195.813C226.681 195.783 226.69 195.749 226.699 195.719C226.729 195.616 226.759 195.514 226.784 195.407C226.836 195.189 226.87 194.963 226.9 194.741C226.9 194.741 226.9 194.711 226.904 194.698C226.904 194.69 226.904 194.681 226.904 194.673C226.926 194.51 226.934 194.348 226.947 194.186C226.956 194.049 226.973 193.913 226.977 193.772H157.202L157.21 193.767Z" fill="#FF7630"/>
<path d="M206.713 101.828C206.786 101.82 206.855 101.803 206.927 101.79C207.086 101.76 207.24 101.726 207.394 101.679C207.471 101.658 207.544 101.632 207.621 101.606C207.771 101.555 207.913 101.495 208.054 101.431C208.118 101.401 208.183 101.376 208.243 101.346C208.44 101.248 208.628 101.137 208.804 101.013C208.984 100.889 209.151 100.748 209.309 100.603C209.361 100.556 209.404 100.509 209.451 100.462C209.558 100.355 209.661 100.244 209.759 100.129C209.806 100.069 209.853 100.014 209.901 99.9539C209.991 99.8343 210.076 99.7105 210.158 99.5824C210.192 99.5269 210.23 99.4714 210.265 99.4116C210.372 99.2237 210.47 99.0316 210.552 98.8309C210.646 98.596 210.715 98.3526 210.774 98.105C210.787 98.0452 210.8 97.9811 210.813 97.9171C210.907 97.4175 210.924 96.8965 210.852 96.367C210.843 96.303 210.83 96.2347 210.822 96.1706C210.774 95.9059 210.71 95.6369 210.616 95.3721L204.31 77.8648H180.413C174.025 77.8648 169.715 84.3681 172.217 90.2267L206.705 170.884C208.444 174.949 212.411 177.4 216.597 177.4C217.933 177.4 219.287 177.153 220.602 176.623L189.401 101.888H206.019C206.263 101.888 206.495 101.867 206.726 101.833L206.713 101.828Z" fill="#FF7630"/>
<path d="M137.529 104.527C138.274 106.175 139.924 107.239 141.74 107.239H153.492V121.492C153.492 121.817 153.526 122.133 153.586 122.44C153.607 122.547 153.646 122.645 153.671 122.748C153.723 122.944 153.774 123.14 153.851 123.324C153.898 123.444 153.963 123.555 154.023 123.674C154.1 123.828 154.177 123.982 154.271 124.127C154.348 124.246 154.434 124.357 154.524 124.473C154.618 124.596 154.712 124.716 154.82 124.831C154.922 124.942 155.034 125.045 155.149 125.147C155.257 125.241 155.364 125.335 155.479 125.421C155.608 125.519 155.745 125.608 155.882 125.694C155.998 125.762 156.118 125.826 156.238 125.886C156.392 125.963 156.546 126.031 156.705 126.095C156.829 126.142 156.953 126.176 157.082 126.211C157.253 126.258 157.424 126.309 157.6 126.339C157.63 126.343 157.66 126.356 157.694 126.36V126.347C157.938 126.386 158.183 126.42 158.435 126.42H163.255L171.476 165.055C171.703 166.132 171.669 167.195 171.421 168.177C171.232 168.916 170.928 169.612 170.517 170.244C170.11 170.871 169.6 171.435 169.009 171.905C168.614 172.216 168.186 172.49 167.728 172.712C166.811 173.16 165.778 173.412 164.673 173.412H154.305L153.843 174.71L151.371 181.64C150.685 183.558 150.968 185.612 152.146 187.273C153.324 188.934 155.167 189.89 157.21 189.89H226.129L222.085 180.201L222.042 180.218C220.294 180.919 218.456 181.273 216.584 181.273C210.706 181.273 205.419 177.789 203.114 172.4L168.627 91.7425C166.939 87.7927 167.346 83.2921 169.724 79.7095C172.102 76.1269 176.09 73.9876 180.4 73.9876H200.026L177.247 55.2419H103.166C101.247 55.2419 99.3402 55.511 97.4938 56.0405L74.9636 63.7052L56.7518 66.0922C55.9549 66.199 55.2309 66.5149 54.6397 66.9889C53.8943 67.5825 53.3673 68.4279 53.1488 69.3802H36.9934V67.5141H38.3986C38.9512 67.5141 39.3968 67.0701 39.3968 66.5192C39.3968 65.9684 38.9512 65.5243 38.3986 65.5243H32.795C32.2423 65.5243 31.7968 65.9684 31.7968 66.5192C31.7968 67.0701 32.2423 67.5141 32.795 67.5141H34.5857V69.3802H29.2734L23.357 73.0055V76.7375H3.59866V76.746H3.59009L0 78.2363V79.4917L1.40948 79.9699L2.33913 80.2859L3.60295 80.7172H23.3613V84.1375L29.2777 87.7628H53.0374V88.4119C53.0374 90.5555 54.6354 92.366 56.7689 92.6393L74.9721 94.9793L97.5023 101.436C99.3445 101.965 101.255 102.234 103.175 102.234H136.496L137.537 104.536L137.529 104.527ZM108.911 94.7316C108.911 95.8162 108.028 96.7001 106.936 96.7001C105.844 96.7001 104.961 95.8205 104.961 94.7316V85.3203C104.961 84.2357 105.844 83.3518 106.936 83.3518C108.028 83.3518 108.911 84.2315 108.911 85.3203V94.7316ZM115.933 94.7316C115.933 95.8162 115.05 96.7001 113.958 96.7001C112.865 96.7001 111.983 95.8205 111.983 94.7316V85.3203C111.983 84.2357 112.865 83.3518 113.958 83.3518C115.05 83.3518 115.933 84.2315 115.933 85.3203V94.7316ZM122.954 94.7316C122.954 95.8162 122.072 96.7001 120.979 96.7001C119.887 96.7001 119.004 95.8205 119.004 94.7316V85.3203C119.004 84.2357 119.887 83.3518 120.979 83.3518C122.072 83.3518 122.954 84.2315 122.954 85.3203V94.7316ZM129.976 94.7316C129.976 95.8162 129.093 96.7001 128.001 96.7001C126.909 96.7001 126.026 95.8205 126.026 94.7316V85.3203C126.026 84.2357 126.909 83.3518 128.001 83.3518C129.093 83.3518 129.976 84.2315 129.976 85.3203V94.7316Z" fill="#FF7630"/>
</g>
<defs>
<clipPath id="clip0_7_123">
<rect width="269" height="250" fill="white"/>
</clipPath>
</defs>
</svg>
