<svg width="250" height="250" viewBox="0 0 250 250" fill="none" xmlns="http://www.w3.org/2000/svg">
<path d="M58.0346 60.7931C47.1416 61.5446 38.3794 70.4648 37.803 81.3663C37.4315 88.3692 40.365 94.6974 45.1817 98.9334C48.6233 101.961 51.5526 106.257 52.1077 110.796H50.6046C48.9692 110.796 47.6455 112.119 47.6455 113.755V114.378C47.6455 115.574 48.3842 116.607 49.4688 117.111C50.2545 117.478 51.0701 118.307 51.3989 120.109L50.9206 121.317C48.6361 127.103 47.4619 133.273 47.4619 139.495V180.47C47.4619 187.042 52.5732 192.64 59.1405 192.875C59.29 192.879 59.4352 192.866 59.5846 192.866V192.884C59.7298 192.884 59.875 192.866 60.0202 192.862C60.2209 192.854 60.4215 192.849 60.6222 192.832C60.84 192.815 61.0492 192.785 61.2628 192.755C61.4592 192.73 61.6513 192.704 61.8435 192.666C62.0527 192.627 62.2577 192.576 62.4626 192.525C62.6505 192.478 62.8384 192.435 63.0263 192.38C63.227 192.32 63.4234 192.252 63.6198 192.179C63.7992 192.115 63.9828 192.055 64.1579 191.983C64.35 191.906 64.5379 191.816 64.7258 191.726C64.8966 191.645 65.0674 191.568 65.2382 191.479C65.4218 191.38 65.5969 191.274 65.7762 191.167C65.9385 191.073 66.1007 190.979 66.2545 190.877C66.4295 190.761 66.5918 190.637 66.7583 190.514C66.9078 190.403 67.0615 190.296 67.2024 190.181C67.3647 190.048 67.5141 189.907 67.6721 189.771C67.8088 189.647 67.9497 189.527 68.0821 189.399C68.2315 189.254 68.3682 189.096 68.5091 188.942C68.6329 188.806 68.761 188.677 68.8763 188.537C69.0129 188.374 69.1368 188.204 69.2606 188.033C69.3716 187.888 69.4826 187.747 69.5851 187.597C69.7047 187.422 69.8114 187.234 69.9267 187.051C70.0207 186.897 70.1189 186.747 70.2086 186.589C70.3153 186.397 70.405 186.201 70.4989 186C70.5758 185.838 70.6612 185.684 70.7295 185.518C70.8192 185.308 70.8918 185.095 70.9686 184.881C71.0284 184.719 71.0967 184.557 71.148 184.39C71.2206 184.164 71.2718 183.929 71.3316 183.694C71.37 183.536 71.4213 183.378 71.4554 183.216C71.5109 182.951 71.5451 182.678 71.5835 182.409C71.6006 182.272 71.6305 182.14 71.6476 182.003C71.6903 181.593 71.7116 181.175 71.7116 180.752V139.486C71.7116 133.265 70.5373 127.099 68.2529 121.309L67.7746 120.1C68.1034 118.294 68.919 117.47 69.7047 117.103C70.7893 116.599 71.528 115.565 71.528 114.37V113.746C71.528 112.111 70.2043 110.787 68.5688 110.787H67.3988C67.8344 106.171 70.6655 101.905 74.1456 98.7882C78.5992 94.7957 81.4004 88.9969 81.4004 82.5448C81.4004 69.9865 70.785 59.9049 58.0388 60.7845L58.0346 60.7931ZM62.864 182.789C62.8469 182.87 62.8171 182.943 62.7957 183.02C62.7573 183.169 62.7146 183.323 62.6591 183.464C62.6206 183.553 62.5737 183.635 62.531 183.72C62.4712 183.84 62.4114 183.963 62.3388 184.079C62.2833 184.164 62.215 184.241 62.1509 184.322C62.0741 184.42 61.9972 184.523 61.9075 184.612C61.8349 184.689 61.7495 184.758 61.6684 184.83C61.5787 184.911 61.4848 184.992 61.3866 185.061C61.2969 185.125 61.1987 185.18 61.1048 185.236C61.0023 185.296 60.8998 185.355 60.793 185.407C60.6906 185.454 60.5838 185.492 60.4728 185.53C60.3618 185.569 60.2465 185.607 60.1312 185.637C60.0159 185.667 59.9006 185.684 59.7853 185.701C59.606 185.727 59.4266 185.757 59.2387 185.757C57.1976 185.757 55.5409 184.1 55.5409 182.059C55.5409 180.018 57.1976 178.361 59.2387 178.361C59.4266 178.361 59.606 178.391 59.7853 178.416C59.9006 178.434 60.0202 178.455 60.1312 178.481C60.2465 178.51 60.3618 178.549 60.4728 178.587C60.5795 178.626 60.6906 178.664 60.793 178.711C60.8998 178.762 61.0023 178.822 61.1048 178.882C61.1987 178.937 61.2969 178.993 61.3866 179.057C61.4848 179.13 61.5745 179.206 61.6684 179.288C61.7495 179.36 61.8307 179.429 61.9075 179.505C61.9929 179.595 62.0698 179.698 62.1509 179.8C62.215 179.881 62.279 179.958 62.3388 180.043C62.4114 180.159 62.4712 180.278 62.531 180.402C62.5737 180.487 62.6249 180.569 62.6591 180.658C62.7188 180.799 62.7573 180.953 62.7957 181.102C62.8171 181.179 62.8469 181.252 62.864 181.333C62.911 181.568 62.9366 181.811 62.9366 182.059C62.9366 182.307 62.911 182.55 62.864 182.785V182.789ZM76.097 85.1666L73.8936 87.1992L74.4786 90.1413L71.7543 91.3967L71.4042 94.3729L68.4279 94.7231L67.1725 97.4474L64.2304 96.8624L62.1979 99.0657L59.5846 97.6011L56.9713 99.0657L54.9388 96.8624L51.9967 97.4474L50.7413 94.7231L47.765 94.3729L47.4149 91.3967L44.6906 90.1413L45.2756 87.1992L43.0722 85.1666L44.5369 82.5534L43.0722 79.9401L45.2756 77.9075L44.6906 74.9654L47.4149 73.71L47.765 70.7338L50.7413 70.3836L51.9967 67.6593L54.9388 68.2443L56.9713 66.041L59.5846 67.5056L62.1979 66.041L64.2304 68.2443L67.1725 67.6593L68.4279 70.3836L71.4042 70.7338L71.7543 73.71L74.4786 74.9654L73.8936 77.9075L76.097 79.9401L74.6323 82.5534L76.097 85.1666Z" fill="#FF7630"/>
<path d="M196.492 59.7981C195.894 59.5462 195.236 59.4053 194.549 59.4053H190.936C188.178 59.4053 185.94 61.6428 185.94 64.4013V174.168L191.696 196.214C191.731 196.351 191.786 196.466 191.854 196.569C192.187 197.055 192.854 197.141 193.323 196.85C193.439 196.778 193.55 196.688 193.631 196.569C193.699 196.466 193.755 196.351 193.789 196.214L195.659 189.053L199.545 174.168V64.4013C199.545 62.3303 198.285 60.5582 196.492 59.7981Z" fill="#FF7630"/>
<path d="M124.998 37.1539C120.117 37.1539 116.159 41.1123 116.159 45.9929C116.159 50.8736 120.117 54.832 124.998 54.832C129.879 54.832 133.837 50.8736 133.837 45.9929C133.837 41.1123 129.879 37.1539 124.998 37.1539ZM124.998 24.4248C112.824 24.4248 102.956 34.2929 102.956 46.4669V65.3407C102.956 74.3292 108.336 82.0537 116.052 85.4826V168.86C116.052 171.636 118.302 173.89 121.082 173.89H128.918C131.693 173.89 133.948 171.64 133.948 168.86V85.4869C141.66 82.0537 147.044 74.3292 147.044 65.3449V46.4712C147.044 34.2972 137.176 24.4291 125.002 24.4291L124.998 24.4248ZM110.279 66.8693C110.279 65.9 111.065 65.1143 112.034 65.1143C113.003 65.1143 113.789 65.9 113.789 66.8693C113.789 67.8386 113.003 68.6243 112.034 68.6243C111.065 68.6243 110.279 67.8386 110.279 66.8693ZM124.998 83.5184C119.43 83.5184 114.519 80.7215 111.581 76.4599L123.76 68.082V79.3593C123.76 80.0553 124.323 80.6232 125.023 80.6232C125.724 80.6232 126.287 80.0596 126.287 79.3593V68.24L137.804 77.284C134.823 81.0759 130.203 83.5226 125.002 83.5226L124.998 83.5184ZM136.045 68.6243C135.075 68.6243 134.29 67.8386 134.29 66.8693C134.29 65.9 135.075 65.1143 136.045 65.1143C137.014 65.1143 137.8 65.9 137.8 66.8693C137.8 67.8386 137.014 68.6243 136.045 68.6243ZM124.998 60.7162C116.868 60.7162 110.279 54.1274 110.279 45.9972C110.279 37.867 116.868 31.2783 124.998 31.2783C133.128 31.2783 139.717 37.867 139.717 45.9972C139.717 54.1274 133.128 60.7162 124.998 60.7162Z" fill="#FF7630"/>
<path d="M124.998 250C91.6102 250 60.2209 236.998 36.6116 213.388C13.0024 189.779 0 158.39 0 124.998C0 91.6059 13.0024 60.2208 36.6116 36.6116C60.2209 13.0024 91.6102 0 124.998 0C158.386 0 189.775 13.0024 213.384 36.6116C236.993 60.2208 249.996 91.6102 249.996 124.998C249.996 158.386 236.993 189.775 213.384 213.384C189.775 236.993 158.386 249.996 124.998 249.996V250ZM124.998 8.54015C93.8904 8.54015 64.6446 20.6543 42.6495 42.6495C20.6543 64.6446 8.54015 93.8904 8.54015 124.998C8.54015 156.105 20.6543 185.351 42.6495 207.346C64.6446 229.341 93.8904 241.456 124.998 241.456C156.105 241.456 185.351 229.341 207.346 207.346C229.341 185.351 241.456 156.105 241.456 124.998C241.456 93.8904 229.341 64.6446 207.346 42.6495C185.351 20.6543 156.105 8.54015 124.998 8.54015Z" fill="#FF7630"/>
</svg>
