<svg width="65" height="64" viewBox="0 0 65 64" fill="none" xmlns="http://www.w3.org/2000/svg">
<g clip-path="url(#clip0_7_95)">
<path d="M32.6868 64C14.7371 64 0.186768 49.5982 0.186768 31.8318C0.186768 14.0654 14.7383 -0.335297 32.6868 -0.335297C50.6352 -0.335297 65.1868 14.0665 65.1868 31.8329C65.1868 49.5993 50.6364 64.0011 32.6868 64.0011V64ZM62.3693 31.8318C62.3693 15.6054 49.0793 2.4523 32.6868 2.4523C16.2942 2.4523 3.00427 15.6066 3.00427 31.8329C3.00427 48.0593 16.2942 61.2124 32.6868 61.2124C49.0793 61.2124 62.3693 48.0581 62.3693 31.8329V31.8318Z" fill="url(#paint0_linear_7_95)"/>
<path d="M32.6868 61.6546C49.3266 61.6546 62.8159 48.303 62.8159 31.8329C62.8159 15.3629 49.3266 2.01132 32.6868 2.01132C16.0469 2.01132 2.55759 15.3629 2.55759 31.8329C2.55759 48.303 16.0469 61.6546 32.6868 61.6546Z" fill="url(#paint1_linear_7_95)"/>
<path d="M32.6867 61.2124C49.0799 61.2124 62.3692 48.0588 62.3692 31.833C62.3692 15.6071 49.0799 2.45346 32.6867 2.45346C16.2936 2.45346 3.00427 15.6071 3.00427 31.833C3.00427 48.0588 16.2936 61.2124 32.6867 61.2124Z" fill="url(#paint2_linear_7_95)"/>
<path d="M32.6868 60.2185C48.5254 60.2185 61.3651 47.5098 61.3651 31.8329C61.3651 16.156 48.5254 3.44739 32.6868 3.44739C16.8482 3.44739 4.00847 16.156 4.00847 31.8329C4.00847 47.5098 16.8482 60.2185 32.6868 60.2185Z" fill="#FF7630"/>
<path style="mix-blend-mode:multiply" opacity="0.35" d="M32.6868 60.2185C48.5254 60.2185 61.3651 47.5098 61.3651 31.8329C61.3651 16.156 48.5254 3.44739 32.6868 3.44739C16.8482 3.44739 4.00847 16.156 4.00847 31.8329C4.00847 47.5098 16.8482 60.2185 32.6868 60.2185Z" fill="url(#paint3_radial_7_95)"/>
<path opacity="0.35" d="M32.6868 60.2185C48.5254 60.2185 61.3651 47.5098 61.3651 31.8329C61.3651 16.156 48.5254 3.44739 32.6868 3.44739C16.8482 3.44739 4.00847 16.156 4.00847 31.8329C4.00847 47.5098 16.8482 60.2185 32.6868 60.2185Z" fill="url(#paint4_radial_7_95)"/>
<path d="M32.4201 50.2345C32.1177 50.2345 31.8361 50.078 31.6791 49.821L15.2392 22.9206C15.0776 22.6556 15.0719 22.3254 15.2254 22.0558C15.3789 21.7862 15.6675 21.6194 15.9791 21.6194H48.86C49.1728 21.6194 49.4602 21.7862 49.6137 22.0558C49.7672 22.3254 49.7626 22.6556 49.5999 22.9206L33.16 49.821C33.003 50.078 32.7225 50.2345 32.419 50.2345H32.4201ZM17.5154 23.3342L32.4201 47.7211L47.3249 23.3342H17.5154Z" fill="white"/>
</g>
<defs>
<linearGradient id="paint0_linear_7_95" x1="32.6868" y1="-0.335297" x2="32.6868" y2="64" gradientUnits="userSpaceOnUse">
<stop stop-color="#DFE0E1"/>
<stop offset="0.27" stop-color="#B0B2B4"/>
<stop offset="0.34" stop-color="#BBBCBF"/>
<stop offset="0.52" stop-color="#858789"/>
<stop offset="0.62" stop-color="#A6A8AA"/>
<stop offset="0.8" stop-color="#929496"/>
<stop offset="1" stop-color="#474749"/>
</linearGradient>
<linearGradient id="paint1_linear_7_95" x1="32.6868" y1="2.01018" x2="32.6868" y2="61.6546" gradientUnits="userSpaceOnUse">
<stop stop-color="#6D6E70"/>
<stop offset="0.12" stop-color="#BFC1C3"/>
<stop offset="0.27" stop-color="#E4E4E5"/>
<stop offset="0.38" stop-color="#C8C9CB"/>
<stop offset="0.48" stop-color="#B9BABC"/>
<stop offset="0.66" stop-color="#7C7D80"/>
<stop offset="0.86" stop-color="#5F6062"/>
<stop offset="1" stop-color="#3B3A3C"/>
</linearGradient>
<linearGradient id="paint2_linear_7_95" x1="32.6868" y1="2.45232" x2="32.6868" y2="61.2124" gradientUnits="userSpaceOnUse">
<stop stop-color="#3B3A3C"/>
<stop offset="0.14" stop-color="#5F6062"/>
<stop offset="0.34" stop-color="#7C7D80"/>
<stop offset="0.52" stop-color="#B9BABC"/>
<stop offset="0.62" stop-color="#C8C9CB"/>
<stop offset="0.73" stop-color="#E4E4E5"/>
<stop offset="0.88" stop-color="#BFC1C3"/>
<stop offset="1" stop-color="#6D6E70"/>
</linearGradient>
<radialGradient id="paint3_radial_7_95" cx="0" cy="0" r="1" gradientUnits="userSpaceOnUse" gradientTransform="translate(32.6868 31.8329) scale(28.6783 28.3855)">
<stop offset="0.56" stop-color="#181415" stop-opacity="0"/>
<stop offset="0.89" stop-color="#181415" stop-opacity="0"/>
<stop offset="0.97" stop-color="#181415" stop-opacity="0.65"/>
<stop offset="0.98" stop-color="#181415" stop-opacity="0.76"/>
<stop offset="1" stop-color="#181415" stop-opacity="0.95"/>
</radialGradient>
<radialGradient id="paint4_radial_7_95" cx="0" cy="0" r="1" gradientUnits="userSpaceOnUse" gradientTransform="translate(32.6868 31.8329) scale(28.6783 28.3855)">
<stop stop-color="white" stop-opacity="0.8"/>
<stop offset="0.56" stop-color="white" stop-opacity="0"/>
</radialGradient>
<clipPath id="clip0_7_95">
<rect width="65" height="64" fill="white"/>
</clipPath>
</defs>
</svg>
