<svg width="465" height="86" viewBox="0 0 465 86" fill="none" xmlns="http://www.w3.org/2000/svg">
<g clip-path="url(#clip0_7_46)">
<path d="M76.919 68.4648H0.87561C2.4503 75.3108 6.27426 81.9202 12.1577 86C42.8941 86 73.6287 86 104.365 86C93.0924 81.922 83.8811 75.3108 76.919 68.4648Z" fill="#FF7630"/>
<path d="M64.5226 43.016H5.19191C1.46002 49.5858 -0.193583 56.0617 0.018755 61.9024C24.0863 61.9024 48.1556 61.9024 72.2231 61.9024C67.7208 56.0617 65.0826 49.5877 64.5226 43.0178V43.016Z" fill="#FF7630"/>
<path d="M69.2523 22.1563C54.1725 22.1563 39.0946 22.1563 24.0149 22.1563C17.5545 26.9766 12.3081 32.1408 8.37323 37.3707H63.8649C64.3817 32.1408 66.21 26.9766 69.2523 22.1563V22.1563Z" fill="#FF7630"/>
<path d="M82.374 8.59567C71.2968 8.59567 60.2195 8.59567 49.1422 8.59567C41.9772 11.5856 35.4135 14.9269 29.5714 18.5406C43.3715 18.5406 57.1716 18.5406 70.9717 18.5406C74.0891 14.9269 77.9319 11.5856 82.374 8.59567V8.59567Z" fill="#FF7630"/>
<path d="M99.0323 0C91.4031 0 83.774 0 76.1448 0C69.4421 1.6481 62.9855 3.52923 56.8615 5.64526C66.6591 5.64526 76.4568 5.64526 86.2563 5.64526C90.2118 3.52923 94.4999 1.64622 99.0341 0H99.0323Z" fill="#FF7630"/>
<path d="M127.375 38.2709C127.375 39.1691 127.132 40.0167 126.649 40.8116C126.165 41.6065 125.422 42.3037 124.419 42.8994C123.415 43.4952 122.162 43.9631 120.659 44.2995C119.156 44.6359 117.374 44.805 115.317 44.805C114.262 44.805 113.182 44.7186 112.075 44.5457C111.124 44.4066 110.078 44.1905 108.937 43.8973C107.796 43.6042 106.69 43.1795 105.619 42.627L107.201 38.9963C108.152 39.4811 109.106 39.8569 110.066 40.1238C111.027 40.3925 111.895 40.5861 112.673 40.7064C113.59 40.8454 114.471 40.9225 115.318 40.9394C117.912 40.9394 119.843 40.7064 121.114 40.2384C122.384 39.7724 123.019 39.1579 123.019 38.3968C123.019 37.9138 122.82 37.5586 122.423 37.3331C122.025 37.1095 121.412 36.9798 120.582 36.9441C120.392 36.9272 120.033 36.9047 119.505 36.8802C118.977 36.8539 118.334 36.8238 117.573 36.79C116.812 36.7562 115.967 36.7205 115.033 36.6867C114.099 36.6528 113.131 36.6096 112.128 36.557C111.124 36.5044 110.204 36.3672 109.365 36.1417C108.527 35.918 107.8 35.5929 107.188 35.1682C106.573 34.7454 106.094 34.2267 105.748 33.6122C105.402 32.9996 105.23 32.2761 105.23 31.4473C105.23 30.6186 105.502 29.8349 106.047 29.1001C106.592 28.3654 107.37 27.7264 108.381 27.1814C109.392 26.6365 110.619 26.2099 112.064 25.8979C113.507 25.586 115.119 25.4319 116.901 25.4319C117.955 25.4319 119.028 25.5089 120.116 25.6649C121.05 25.8039 122.091 26.0013 123.241 26.2606C124.391 26.5199 125.509 26.8995 126.599 27.4013L125.225 30.9794C124.689 30.7558 124.084 30.5378 123.41 30.331C122.735 30.1243 122.031 29.942 121.296 29.7861C120.561 29.6301 119.817 29.5098 119.065 29.4234C118.314 29.3369 117.592 29.2937 116.901 29.2937C115.863 29.2937 114.899 29.3407 114.009 29.4365C113.118 29.5324 112.344 29.6752 111.688 29.865C111.03 30.0548 110.517 30.2897 110.145 30.566C109.773 30.8422 109.587 31.1542 109.587 31.4999C109.587 31.9491 109.777 32.2873 110.158 32.511C110.538 32.7365 111.1 32.8662 111.844 32.9C112.675 32.9357 113.841 32.9864 115.345 33.056C116.848 33.1255 118.629 33.2025 120.687 33.289C121.724 33.3416 122.653 33.4788 123.476 33.7043C124.297 33.9298 124.996 34.2493 125.576 34.6646C126.155 35.0799 126.601 35.5892 126.912 36.1943C127.223 36.7994 127.378 37.491 127.378 38.269L127.375 38.2709Z" fill="#FF7630"/>
<path d="M151.256 35.0555C151.256 36.3691 151.006 37.6094 150.505 38.7764C150.003 39.9434 149.285 40.9676 148.353 41.849C147.419 42.7304 146.286 43.4313 144.956 43.95C143.623 44.4687 142.129 44.728 140.47 44.728C138.811 44.728 137.315 44.4687 135.985 43.95C134.653 43.4313 133.518 42.7304 132.574 41.849C131.631 40.9676 130.909 39.9434 130.41 38.7764C129.908 37.6094 129.658 36.3691 129.658 35.0555V25.9787H134.222V35.0555C134.222 35.8335 134.348 36.5721 134.598 37.273C134.848 37.974 135.229 38.5922 135.739 39.1278C136.248 39.6634 136.896 40.0881 137.683 40.3982C138.469 40.7102 139.399 40.8643 140.47 40.8643C141.541 40.8643 142.468 40.7083 143.246 40.3982C144.024 40.0862 144.668 39.6634 145.177 39.1278C145.687 38.5922 146.068 37.974 146.318 37.273C146.568 36.5721 146.694 35.8335 146.694 35.0555V25.9787H151.258V35.0555H151.256Z" fill="#FF7630"/>
<path d="M178.018 39.0996C178.018 39.9979 177.862 40.7646 177.552 41.3942C177.24 42.0256 176.821 42.5443 176.295 42.9502C175.767 43.3561 175.145 43.6549 174.427 43.8447C173.71 44.0345 172.937 44.1304 172.107 44.1304H155.095V25.9768H172.107C172.971 25.9768 173.766 26.0764 174.493 26.2756C175.218 26.4748 175.842 26.7812 176.361 27.1965C176.88 27.6118 177.285 28.1436 177.581 28.792C177.874 29.4403 178.022 30.2221 178.022 31.1391C178.005 31.6935 177.902 32.2197 177.71 32.7215C177.554 33.1537 177.304 33.5859 176.959 34.0181C176.613 34.4504 176.111 34.8055 175.455 35.0818C176.113 35.3937 176.613 35.7771 176.959 36.2357C177.304 36.6942 177.554 37.1396 177.71 37.5718C177.9 38.0736 178.003 38.5828 178.022 39.1015L178.018 39.0996ZM173.636 31.5526C173.636 31.1373 173.559 30.8103 173.403 30.5678C173.247 30.3254 173.061 30.1488 172.845 30.036C172.629 29.9233 172.409 29.85 172.184 29.8161C171.958 29.7823 171.778 29.7635 171.639 29.7635H159.658V33.3679H171.639C171.742 33.3679 171.902 33.351 172.118 33.3153C172.334 33.2815 172.554 33.1988 172.779 33.0691C173.003 32.9395 173.202 32.7534 173.375 32.511C173.548 32.2686 173.634 31.9491 173.634 31.5507L173.636 31.5526ZM173.636 38.5546C173.636 38.1393 173.559 37.8123 173.403 37.5699C173.247 37.3275 173.061 37.1471 172.845 37.0249C172.629 36.9047 172.409 36.8257 172.184 36.7919C171.958 36.7581 171.778 36.7393 171.639 36.7393H159.658V40.3437H171.639C171.742 40.3437 171.902 40.3268 172.118 40.2911C172.334 40.2572 172.554 40.1783 172.779 40.058C173.003 39.9378 173.202 39.7555 173.375 39.5131C173.548 39.2706 173.634 38.9512 173.634 38.5528L173.636 38.5546Z" fill="#FF7630"/>
<path d="M181.596 44.1323V25.9787H186.16V40.2159H202.264V44.1323H181.596Z" fill="#FF7630"/>
<path d="M205.842 44.1323V25.9787H210.406V44.1323H205.842Z" fill="#FF7630"/>
<path d="M238.463 35.0555C238.463 36.3691 238.178 37.6094 237.608 38.7764C237.039 39.9434 236.212 40.9676 235.132 41.849C234.051 42.7303 232.728 43.4313 231.165 43.95C229.6 44.4686 227.824 44.728 225.836 44.728C223.848 44.728 222.072 44.4686 220.507 43.95C218.941 43.4313 217.618 42.7303 216.54 41.849C215.459 40.9676 214.634 39.9434 214.063 38.7764C213.492 37.6094 213.208 36.3691 213.208 35.0555C213.208 33.7419 213.494 32.5016 214.063 31.3346C214.633 30.1676 215.459 29.1434 216.54 28.262C217.62 27.3806 218.943 26.6797 220.507 26.161C222.072 25.6423 223.848 25.383 225.836 25.383C227.166 25.383 228.395 25.5089 229.519 25.7588C230.643 26.0088 231.667 26.3508 232.591 26.783C233.516 27.2153 234.333 27.7302 235.041 28.3259C235.75 28.9216 236.347 29.5756 236.83 30.2841L232.811 32.3325C232.257 31.468 231.402 30.7464 230.244 30.1676C229.087 29.5888 227.615 29.2993 225.836 29.2993C224.522 29.2993 223.369 29.4553 222.374 29.7654C221.38 30.0774 220.546 30.4964 219.872 31.0226C219.197 31.5507 218.691 32.1596 218.355 32.8511C218.019 33.5427 217.85 34.2775 217.85 35.0555C217.85 35.8335 218.019 36.5683 218.355 37.2598C218.691 37.9514 219.197 38.5603 219.872 39.0884C220.546 39.6164 221.38 40.0355 222.374 40.3456C223.369 40.6575 224.522 40.8116 225.836 40.8116C227.79 40.8116 229.393 40.479 230.646 39.8137C231.9 39.1485 232.785 38.3047 233.303 37.2843H224.045V33.7569H238.36C238.394 33.9636 238.42 34.176 238.437 34.3921C238.454 34.6082 238.463 34.8281 238.463 35.0536V35.0555Z" fill="#FF7630"/>
<path d="M259.468 44.1323V36.6641H246.346V44.1323H241.782V25.9787H246.346V32.7478H259.468V25.9787H264.032V44.1323H259.468Z" fill="#FF7630"/>
<path d="M280.187 29.8932V44.1304H275.649V29.8932H267.48V25.9768H288.355V29.8932H280.187Z" fill="#FF7630"/>
<path d="M303.292 44.1323V25.9787H325.152V29.8951H307.855V33.1631H323.077V36.6904H307.855V40.2178H325.824V44.1341H303.29L303.292 44.1323Z" fill="#FF7630"/>
<path d="M346.572 44.1323L333.45 31.4511V44.1323H328.886V25.9787H333.45L346.572 38.6599V25.9787H351.136V44.1323H346.572Z" fill="#FF7630"/>
<path d="M379.711 35.0555C379.711 36.3691 379.426 37.6094 378.856 38.7764C378.287 39.9434 377.46 40.9676 376.38 41.849C375.299 42.7303 373.976 43.4313 372.413 43.95C370.848 44.4686 369.072 44.728 367.084 44.728C365.096 44.728 363.32 44.4686 361.755 43.95C360.189 43.4313 358.867 42.7303 357.788 41.849C356.708 40.9676 355.883 39.9434 355.311 38.7764C354.74 37.6094 354.456 36.3691 354.456 35.0555C354.456 33.7419 354.742 32.5016 355.311 31.3346C355.881 30.1676 356.708 29.1434 357.788 28.262C358.868 27.3806 360.191 26.6797 361.755 26.161C363.32 25.6423 365.096 25.383 367.084 25.383C368.414 25.383 369.643 25.5089 370.767 25.7588C371.891 26.0088 372.915 26.3508 373.839 26.783C374.764 27.2153 375.581 27.7302 376.29 28.3259C376.998 28.9216 377.596 29.5756 378.079 30.2841L374.059 32.3325C373.505 31.468 372.65 30.7464 371.492 30.1676C370.335 29.5888 368.863 29.2993 367.084 29.2993C365.77 29.2993 364.617 29.4553 363.623 29.7654C362.629 30.0774 361.794 30.4964 361.12 31.0226C360.445 31.5507 359.94 32.1596 359.603 32.8511C359.267 33.5427 359.098 34.2775 359.098 35.0555C359.098 35.8335 359.267 36.5683 359.603 37.2598C359.94 37.9514 360.445 38.5603 361.12 39.0884C361.794 39.6164 362.629 40.0355 363.623 40.3456C364.617 40.6575 365.77 40.8116 367.084 40.8116C369.038 40.8116 370.641 40.479 371.894 39.8137C373.148 39.1485 374.033 38.3047 374.551 37.2843H365.293V33.7569H379.608C379.642 33.9636 379.668 34.176 379.685 34.3921C379.702 34.6082 379.711 34.8281 379.711 35.0536V35.0555Z" fill="#FF7630"/>
<path d="M383.03 44.1323V25.9787H387.594V44.1323H383.03Z" fill="#FF7630"/>
<path d="M409.506 44.1323L396.385 31.4511V44.1323H391.82V25.9787H396.385L409.506 38.6599V25.9787H414.071V44.1323H409.506Z" fill="#FF7630"/>
<path d="M417.778 44.1323V25.9787H439.638V29.8951H422.341V33.1631H437.563V36.6904H422.341V40.2178H440.31V44.1341H417.776L417.778 44.1323Z" fill="#FF7630"/>
<path d="M465 38.2709C465 39.1691 464.758 40.0167 464.275 40.8116C463.79 41.6065 463.048 42.3037 462.044 42.8994C461.041 43.4952 459.787 43.9631 458.284 44.2995C456.781 44.6359 454.999 44.805 452.942 44.805C451.888 44.805 450.807 44.7186 449.7 44.5457C448.75 44.4066 447.703 44.1905 446.562 43.8973C445.422 43.6042 444.315 43.1795 443.244 42.627L444.826 38.9963C445.777 39.4811 446.731 39.8569 447.692 40.1238C448.652 40.3925 449.52 40.5861 450.298 40.7064C451.215 40.8454 452.096 40.9225 452.944 40.9394C455.537 40.9394 457.469 40.7064 458.739 40.2384C460.009 39.7724 460.644 39.1579 460.644 38.3968C460.644 37.9138 460.445 37.5586 460.049 37.3331C459.65 37.1095 459.038 36.9798 458.207 36.9441C458.017 36.9272 457.658 36.9047 457.13 36.8802C456.602 36.8539 455.96 36.8238 455.199 36.79C454.438 36.7562 453.59 36.7205 452.658 36.6867C451.724 36.6528 450.756 36.6096 449.753 36.557C448.75 36.5044 447.829 36.3672 446.991 36.1417C446.153 35.918 445.425 35.5929 444.813 35.1682C444.198 34.7454 443.719 34.2267 443.373 33.6122C443.028 32.9996 442.855 32.2761 442.855 31.4473C442.855 30.6186 443.127 29.8349 443.672 29.1001C444.217 28.3654 444.995 27.7264 446.006 27.1814C447.017 26.6365 448.244 26.2099 449.689 25.8979C451.132 25.586 452.745 25.4319 454.526 25.4319C455.58 25.4319 456.653 25.5089 457.741 25.6649C458.675 25.8039 459.716 26.0013 460.866 26.2606C462.016 26.5199 463.136 26.8995 464.224 27.4013L462.85 30.9794C462.315 30.7558 461.71 30.5378 461.035 30.331C460.36 30.1243 459.656 29.942 458.921 29.7861C458.186 29.6301 457.442 29.5098 456.691 29.4234C455.939 29.3369 455.217 29.2937 454.526 29.2937C453.489 29.2937 452.525 29.3407 451.634 29.4365C450.743 29.5324 449.969 29.6752 449.313 29.865C448.656 30.0548 448.143 30.2897 447.771 30.566C447.398 30.8422 447.212 31.1542 447.212 31.4999C447.212 31.9491 447.402 32.2873 447.784 32.511C448.163 32.7365 448.725 32.8662 449.469 32.9C450.3 32.9357 451.467 32.9864 452.97 33.056C454.473 33.1255 456.255 33.2025 458.312 33.289C459.35 33.3416 460.278 33.4788 461.099 33.7043C461.92 33.9298 462.619 34.2493 463.2 34.6646C463.779 35.0799 464.224 35.5892 464.536 36.1943C464.848 36.7994 465.002 37.491 465.002 38.269L465 38.2709Z" fill="#FF7630"/>
<path d="M105.859 58.8768V50.1947H116.314V52.0683H108.043V53.6318H115.322V55.3194H108.043V57.007H116.638V58.8806H105.859V58.8768Z" fill="white"/>
<path d="M123.966 58.8768V50.1947H126.15V57.0032H133.852V58.8768H123.968H123.966Z" fill="white"/>
<path d="M141.18 58.8768V50.1947H151.636V52.0683H143.364V53.6318H150.644V55.3194H143.364V57.007H151.959V58.8806H141.182L141.18 58.8768Z" fill="white"/>
<path d="M165.785 58.8768H163.008L158.481 50.1947H160.9L164.397 57.0408L167.894 50.1947H170.312L165.785 58.8768Z" fill="white"/>
<path d="M186.782 58.8768L185.777 57.1404H179.663L178.657 58.8768H176.338L181.324 50.1947H184.114L189.099 58.8768H186.781H186.782ZM182.727 51.8203L180.743 55.2687H184.712L182.727 51.8203Z" fill="white"/>
<path d="M201.64 52.0664V58.8749H199.47V52.0664H195.563V50.1928H205.547V52.0664H201.64Z" fill="white"/>
<path d="M224.013 54.5358C224.013 55.1634 223.88 55.7573 223.617 56.3154C223.352 56.8736 222.97 57.364 222.468 57.785C221.969 58.2059 221.358 58.5423 220.64 58.7904C219.92 59.0384 219.107 59.1625 218.197 59.1625C217.288 59.1625 216.474 59.0384 215.754 58.7904C215.035 58.5423 214.426 58.2078 213.924 57.785C213.424 57.364 213.041 56.8736 212.776 56.3154C212.511 55.7573 212.38 55.1634 212.38 54.5358C212.38 53.9081 212.511 53.3143 212.776 52.7561C213.041 52.198 213.422 51.7075 213.924 51.2865C214.424 50.8656 215.035 50.5292 215.754 50.2812C216.474 50.0331 217.288 49.9091 218.197 49.9091C219.107 49.9091 219.92 50.0331 220.64 50.2812C221.36 50.5292 221.969 50.8637 222.468 51.2865C222.968 51.7094 223.352 52.198 223.617 52.7561C223.881 53.3143 224.013 53.9081 224.013 54.5358ZM221.719 54.5358C221.719 54.1637 221.645 53.8104 221.501 53.4759C221.356 53.1414 221.136 52.8463 220.843 52.5889C220.55 52.3333 220.182 52.1303 219.74 51.9819C219.298 51.8334 218.783 51.7582 218.195 51.7582C217.607 51.7582 217.094 51.8334 216.651 51.9819C216.207 52.1303 215.841 52.3333 215.548 52.5889C215.255 52.8444 215.035 53.1414 214.89 53.4759C214.745 53.8104 214.672 54.1637 214.672 54.5358C214.672 54.9079 214.743 55.2612 214.89 55.5957C215.035 55.9302 215.255 56.2271 215.548 56.4827C215.841 56.7382 216.209 56.9412 216.651 57.0897C217.092 57.2381 217.607 57.3133 218.195 57.3133C218.783 57.3133 219.296 57.2381 219.74 57.0897C220.182 56.9412 220.55 56.7382 220.843 56.4827C221.136 56.2271 221.356 55.9302 221.501 55.5957C221.645 55.2612 221.719 54.9079 221.719 54.5358Z" fill="white"/>
<path d="M241.861 53.0474C241.861 53.427 241.812 53.7634 241.712 54.0528C241.613 54.3422 241.483 54.5921 241.321 54.8026C241.16 55.0131 240.978 55.1897 240.776 55.3307C240.574 55.4716 240.369 55.5825 240.162 55.6652L241.675 58.8768H239.343L237.954 55.9133H233.403V58.8768H231.219V50.1947H239.02C239.251 50.1947 239.531 50.236 239.856 50.3187C240.183 50.4014 240.495 50.548 240.792 50.7585C241.088 50.969 241.342 51.2584 241.549 51.6267C241.755 51.995 241.859 52.4686 241.859 53.0474H241.861ZM239.677 53.0474C239.677 52.8407 239.64 52.6734 239.566 52.5456C239.491 52.4178 239.401 52.3183 239.294 52.2487C239.187 52.1792 239.078 52.1303 238.965 52.1059C238.854 52.0815 238.764 52.0683 238.698 52.0683H233.403V54.0396H238.698C238.747 54.0396 238.826 54.0246 238.933 53.9964C239.04 53.9682 239.151 53.9156 239.262 53.8423C239.373 53.7672 239.471 53.6676 239.553 53.5379C239.636 53.4101 239.677 53.2466 239.677 53.0474Z" fill="white"/>
<path d="M272.357 56.5935C272.142 56.9656 271.864 57.3058 271.526 57.6159C271.188 57.9259 270.789 58.1965 270.335 58.4277C269.88 58.6588 269.371 58.8392 268.809 58.967C268.247 59.0948 267.631 59.1587 266.962 59.1587C266.011 59.1587 265.162 59.0347 264.414 58.7866C263.666 58.5386 263.033 58.2041 262.516 57.7812C261.999 57.3603 261.604 56.8698 261.332 56.3117C261.059 55.7535 260.922 55.1597 260.922 54.532C260.922 53.9043 261.059 53.3105 261.332 52.7524C261.604 52.1942 261.999 51.7037 262.516 51.2828C263.033 50.8618 263.666 50.5255 264.414 50.2774C265.162 50.0293 266.011 49.9053 266.962 49.9053C267.606 49.9053 268.204 49.9654 268.754 50.0857C269.305 50.206 269.803 50.3751 270.248 50.595C270.696 50.8149 271.086 51.0704 271.426 51.3636C271.765 51.6568 272.047 51.9781 272.27 52.3239L270.31 53.3161C270.186 53.1094 270.019 52.9159 269.809 52.7336C269.598 52.5513 269.346 52.3953 269.051 52.2619C268.758 52.1303 268.427 52.0251 268.059 51.9462C267.691 51.8672 267.296 51.8278 266.875 51.8278C266.263 51.8278 265.729 51.9011 265.269 52.0439C264.81 52.1886 264.429 52.384 264.128 52.6321C263.826 52.8802 263.598 53.1677 263.446 53.4947C263.294 53.8217 263.217 54.1674 263.217 54.5301C263.217 54.8928 263.294 55.2273 263.446 55.5543C263.598 55.8813 263.826 56.1688 264.128 56.4169C264.431 56.665 264.81 56.8642 265.269 57.0126C265.727 57.1611 266.263 57.2362 266.875 57.2362C267.323 57.2362 267.736 57.193 268.115 57.1066C268.495 57.0201 268.835 56.9017 269.132 56.7533C269.429 56.6048 269.686 56.4301 269.901 56.2327C270.115 56.0335 270.276 55.8231 270.384 55.5994L272.355 56.5917L272.357 56.5935Z" fill="white"/>
<path d="M289.137 58.8768L288.132 57.1404H282.017L281.012 58.8768H278.693L283.678 50.1947H286.469L291.454 58.8768H289.135H289.137ZM285.082 51.8203L283.098 55.2687H287.066L285.082 51.8203Z" fill="white"/>
<path d="M309.253 56.4695C309.253 56.8999 309.178 57.2663 309.029 57.567C308.881 57.8695 308.68 58.1176 308.428 58.3112C308.176 58.5047 307.877 58.6476 307.535 58.7396C307.191 58.8298 306.823 58.8768 306.425 58.8768H298.288V50.1947H306.425C306.838 50.1947 307.218 50.2417 307.565 50.3375C307.913 50.4334 308.21 50.5799 308.458 50.7773C308.706 50.9765 308.899 51.2302 309.04 51.5402C309.181 51.8503 309.251 52.2243 309.251 52.6622C309.243 52.9271 309.193 53.1789 309.102 53.4195C309.027 53.6262 308.909 53.8329 308.744 54.0396C308.578 54.2464 308.338 54.4155 308.024 54.5489C308.338 54.6974 308.578 54.8815 308.744 55.1014C308.909 55.3213 309.029 55.5336 309.102 55.7404C309.193 55.9809 309.243 56.2233 309.251 56.4714L309.253 56.4695ZM307.158 52.8595C307.158 52.6603 307.12 52.5043 307.047 52.3878C306.972 52.2713 306.883 52.1867 306.78 52.1341C306.676 52.0796 306.571 52.0458 306.464 52.0288C306.357 52.0119 306.271 52.0044 306.203 52.0044H300.474V53.7277H306.203C306.252 53.7277 306.329 53.7202 306.432 53.7033C306.536 53.6863 306.641 53.6469 306.748 53.5849C306.855 53.5229 306.951 53.4345 307.034 53.318C307.116 53.2015 307.158 53.0493 307.158 52.8595ZM307.158 56.2083C307.158 56.0091 307.12 55.8531 307.047 55.7366C306.972 55.6201 306.883 55.5336 306.78 55.4754C306.676 55.4171 306.571 55.3795 306.464 55.3645C306.357 55.3476 306.271 55.3401 306.203 55.3401H300.474V57.0634H306.203C306.252 57.0634 306.329 57.0558 306.432 57.0389C306.536 57.022 306.641 56.9844 306.748 56.928C306.855 56.8698 306.951 56.7833 307.034 56.6668C307.116 56.5503 307.158 56.3981 307.158 56.2083Z" fill="white"/>
<path d="M339.687 56.5935C339.472 56.9656 339.194 57.3058 338.856 57.6159C338.518 57.9259 338.119 58.1965 337.665 58.4277C337.21 58.6588 336.701 58.8392 336.139 58.967C335.577 59.0948 334.961 59.1587 334.292 59.1587C333.341 59.1587 332.492 59.0347 331.744 58.7866C330.996 58.5386 330.362 58.2041 329.846 57.7812C329.329 57.3603 328.934 56.8698 328.662 56.3117C328.389 55.7535 328.252 55.1597 328.252 54.532C328.252 53.9043 328.389 53.3105 328.662 52.7524C328.934 52.1942 329.329 51.7037 329.846 51.2828C330.362 50.8618 330.996 50.5255 331.744 50.2774C332.492 50.0293 333.341 49.9053 334.292 49.9053C334.936 49.9053 335.534 49.9654 336.084 50.0857C336.635 50.206 337.133 50.3751 337.578 50.595C338.026 50.8149 338.416 51.0704 338.756 51.3636C339.095 51.6568 339.377 51.9781 339.6 52.3239L337.64 53.3161C337.516 53.1094 337.349 52.9159 337.139 52.7336C336.928 52.5513 336.676 52.3953 336.381 52.2619C336.088 52.1303 335.757 52.0251 335.389 51.9462C335.021 51.8672 334.626 51.8278 334.205 51.8278C333.593 51.8278 333.059 51.9011 332.599 52.0439C332.14 52.1886 331.759 52.384 331.458 52.6321C331.155 52.8802 330.928 53.1677 330.776 53.4947C330.624 53.8217 330.547 54.1674 330.547 54.5301C330.547 54.8928 330.624 55.2273 330.776 55.5543C330.928 55.8813 331.155 56.1688 331.458 56.4169C331.761 56.665 332.14 56.8642 332.599 57.0126C333.057 57.1611 333.593 57.2362 334.205 57.2362C334.653 57.2362 335.066 57.193 335.446 57.1066C335.825 57.0201 336.165 56.9017 336.462 56.7533C336.759 56.6048 337.016 56.4301 337.231 56.2327C337.445 56.0335 337.606 55.8231 337.714 55.5994L339.685 56.5917L339.687 56.5935Z" fill="white"/>
<path d="M358.028 54.5358C358.028 55.1634 357.895 55.7573 357.632 56.3154C357.367 56.8736 356.986 57.364 356.484 57.785C355.984 58.2059 355.373 58.5423 354.655 58.7904C353.936 59.0384 353.122 59.1625 352.213 59.1625C351.303 59.1625 350.49 59.0384 349.77 58.7904C349.05 58.5423 348.441 58.2078 347.94 57.785C347.44 57.364 347.056 56.8736 346.791 56.3154C346.527 55.7573 346.395 55.1634 346.395 54.5358C346.395 53.9081 346.527 53.3143 346.791 52.7561C347.056 52.198 347.438 51.7075 347.94 51.2865C348.439 50.8656 349.05 50.5292 349.77 50.2812C350.49 50.0331 351.303 49.9091 352.213 49.9091C353.122 49.9091 353.936 50.0331 354.655 50.2812C355.375 50.5292 355.984 50.8637 356.484 51.2865C356.984 51.7094 357.367 52.198 357.632 52.7561C357.897 53.3143 358.028 53.9081 358.028 54.5358ZM355.734 54.5358C355.734 54.1637 355.661 53.8104 355.516 53.4759C355.371 53.1414 355.152 52.8463 354.858 52.5889C354.565 52.3333 354.197 52.1303 353.755 51.9819C353.314 51.8334 352.799 51.7582 352.211 51.7582C351.623 51.7582 351.11 51.8334 350.666 51.9819C350.223 52.1303 349.856 52.3333 349.563 52.5889C349.27 52.8444 349.05 53.1414 348.905 53.4759C348.761 53.8104 348.687 54.1637 348.687 54.5358C348.687 54.9079 348.759 55.2612 348.905 55.5957C349.05 55.9302 349.27 56.2271 349.563 56.4827C349.856 56.7382 350.225 56.9412 350.666 57.0897C351.108 57.2381 351.623 57.3133 352.211 57.3133C352.799 57.3133 353.312 57.2381 353.755 57.0897C354.197 56.9412 354.565 56.7382 354.858 56.4827C355.152 56.2271 355.371 55.9302 355.516 55.5957C355.661 55.2612 355.734 54.9079 355.734 54.5358Z" fill="white"/>
<path d="M373.693 58.8768L367.416 52.8125V58.8768H365.233V50.1947H367.416L373.693 56.259V50.1947H375.876V58.8768H373.693Z" fill="white"/>
<path d="M389.22 52.0664V58.8749H387.049V52.0664H383.143V50.1928H393.126V52.0664H389.22Z" fill="white"/>
<path d="M411.036 53.0474C411.036 53.427 410.987 53.7634 410.888 54.0528C410.788 54.3422 410.658 54.5921 410.497 54.8026C410.335 55.0131 410.153 55.1897 409.952 55.3307C409.749 55.4716 409.544 55.5825 409.337 55.6652L410.85 58.8768H408.518L407.129 55.9133H402.578V58.8768H400.395V50.1947H408.195C408.426 50.1947 408.706 50.236 409.031 50.3187C409.358 50.4014 409.67 50.548 409.967 50.7585C410.264 50.969 410.517 51.2584 410.724 51.6267C410.931 51.995 411.034 52.4686 411.034 53.0474H411.036ZM408.853 53.0474C408.853 52.8407 408.815 52.6734 408.742 52.5456C408.666 52.4178 408.576 52.3183 408.469 52.2487C408.362 52.1792 408.253 52.1303 408.14 52.1059C408.029 52.0815 407.939 52.0683 407.874 52.0683H402.578V54.0396H407.874C407.922 54.0396 408.001 54.0246 408.108 53.9964C408.216 53.9682 408.326 53.9156 408.437 53.8423C408.548 53.7672 408.646 53.6676 408.728 53.5379C408.811 53.4101 408.853 53.2466 408.853 53.0474Z" fill="white"/>
<path d="M429.626 54.5358C429.626 55.1634 429.493 55.7573 429.229 56.3154C428.965 56.8736 428.583 57.364 428.081 57.785C427.582 58.2059 426.971 58.5423 426.253 58.7904C425.533 59.0384 424.72 59.1625 423.81 59.1625C422.901 59.1625 422.087 59.0384 421.367 58.7904C420.648 58.5423 420.039 58.2078 419.537 57.785C419.037 57.364 418.654 56.8736 418.389 56.3154C418.124 55.7573 417.992 55.1634 417.992 54.5358C417.992 53.9081 418.124 53.3143 418.389 52.7561C418.654 52.198 419.035 51.7075 419.537 51.2865C420.037 50.8656 420.648 50.5292 421.367 50.2812C422.087 50.0331 422.901 49.9091 423.81 49.9091C424.72 49.9091 425.533 50.0331 426.253 50.2812C426.973 50.5292 427.582 50.8637 428.081 51.2865C428.581 51.7094 428.965 52.198 429.229 52.7561C429.494 53.3143 429.626 53.9081 429.626 54.5358ZM427.332 54.5358C427.332 54.1637 427.258 53.8104 427.114 53.4759C426.969 53.1414 426.749 52.8463 426.456 52.5889C426.163 52.3333 425.794 52.1303 425.353 51.9819C424.911 51.8334 424.396 51.7582 423.808 51.7582C423.22 51.7582 422.707 51.8334 422.264 51.9819C421.82 52.1303 421.454 52.3333 421.161 52.5889C420.867 52.8444 420.648 53.1414 420.503 53.4759C420.358 53.8104 420.285 54.1637 420.285 54.5358C420.285 54.9079 420.356 55.2612 420.503 55.5957C420.648 55.9302 420.867 56.2271 421.161 56.4827C421.454 56.7382 421.822 56.9412 422.264 57.0897C422.705 57.2381 423.22 57.3133 423.808 57.3133C424.396 57.3133 424.909 57.2381 425.353 57.0897C425.794 56.9412 426.163 56.7382 426.456 56.4827C426.749 56.2271 426.969 55.9302 427.114 55.5957C427.258 55.2612 427.332 54.9079 427.332 54.5358Z" fill="white"/>
<path d="M436.832 58.8768V50.1947H439.016V57.0032H446.718V58.8768H436.834H436.832Z" fill="white"/>
<path d="M464.141 56.073C464.141 56.5033 464.025 56.9074 463.794 57.2889C463.562 57.6685 463.207 58.003 462.726 58.2867C462.247 58.5724 461.648 58.796 460.928 58.9558C460.208 59.1174 459.357 59.1982 458.372 59.1982C457.869 59.1982 457.352 59.1568 456.822 59.0741C456.367 59.0084 455.868 58.905 455.321 58.7641C454.776 58.6231 454.246 58.4202 453.733 58.1571L454.49 56.4207C454.945 56.6518 455.402 56.8322 455.86 56.96C456.319 57.0878 456.734 57.1817 457.106 57.2381C457.544 57.3039 457.967 57.3415 458.371 57.349C459.611 57.349 460.535 57.2381 461.142 57.0145C461.749 56.7909 462.054 56.4977 462.054 56.1331C462.054 55.902 461.958 55.7328 461.768 55.6238C461.578 55.5167 461.285 55.4547 460.887 55.4378C460.795 55.4303 460.624 55.419 460.372 55.4077C460.12 55.3946 459.812 55.3814 459.447 55.3645C459.083 55.3476 458.679 55.3307 458.231 55.3157C457.784 55.2987 457.322 55.2781 456.843 55.2536C456.364 55.2292 455.922 55.1634 455.522 55.0544C455.122 54.9473 454.774 54.7913 454.481 54.5884C454.188 54.3854 453.958 54.1374 453.793 53.8442C453.628 53.551 453.545 53.2053 453.545 52.8087C453.545 52.4122 453.675 52.0382 453.936 51.6868C454.197 51.3354 454.569 51.0291 455.052 50.7698C455.535 50.5085 456.123 50.3037 456.813 50.1552C457.502 50.0068 458.275 49.9316 459.126 49.9316C459.63 49.9316 460.143 49.9692 460.663 50.0425C461.11 50.1083 461.608 50.2041 462.157 50.3281C462.707 50.4522 463.243 50.6344 463.764 50.8731L463.106 52.5851C462.85 52.478 462.561 52.3746 462.238 52.275C461.914 52.1754 461.578 52.089 461.227 52.0138C460.875 51.9386 460.52 51.8823 460.159 51.8409C459.801 51.7996 459.455 51.7789 459.124 51.7789C458.628 51.7789 458.168 51.8015 457.741 51.8466C457.314 51.8917 456.944 51.9612 456.63 52.0514C456.317 52.1416 456.071 52.2544 455.892 52.3859C455.714 52.5175 455.625 52.6678 455.625 52.8332C455.625 53.0493 455.715 53.209 455.898 53.3161C456.08 53.4232 456.349 53.4853 456.704 53.5022C457.1 53.5191 457.658 53.5435 458.378 53.5773C459.098 53.6112 459.949 53.6469 460.934 53.6882C461.43 53.7127 461.873 53.7784 462.266 53.8874C462.659 53.9945 462.993 54.1486 463.271 54.346C463.547 54.5452 463.762 54.7876 463.91 55.077C464.059 55.3664 464.134 55.6971 464.134 56.0692L464.141 56.073Z" fill="white"/>
</g>
<defs>
<clipPath id="clip0_7_46">
<rect width="465" height="86" fill="white"/>
</clipPath>
</defs>
</svg>
