<svg width="250" height="250" viewBox="0 0 250 250" fill="none" xmlns="http://www.w3.org/2000/svg">
<path d="M57.9577 109.638C56.2326 109.638 54.832 111.039 54.832 112.764C54.832 114.489 56.2326 115.89 57.9577 115.89C59.6828 115.89 61.0834 114.493 61.0834 112.764C61.0834 111.035 59.6828 109.638 57.9577 109.638ZM57.9577 70.089H39.8227V73.4709H39.938V80.9478L46.104 87.6134L46.1424 87.6219V176.679C46.1424 179.339 48.2988 181.499 50.9633 181.499H64.9521C65.6182 181.499 66.2502 181.363 66.8266 181.119C66.9718 181.06 67.1127 180.991 67.2494 180.914C67.6593 180.692 68.0351 180.411 68.3596 180.086C69.2307 179.215 69.773 178.011 69.773 176.679V87.6176L75.939 80.9521V70.0933H57.9577V70.089ZM62.0527 129.733C62.0527 131.997 60.2208 133.828 57.9577 133.828C55.6946 133.828 53.8627 131.997 53.8627 129.733V112.286C53.8627 110.023 55.6946 108.191 57.9577 108.191C60.2208 108.191 62.0527 110.023 62.0527 112.286V129.733Z" fill="#FF7630"/>
<path d="M124.998 250C91.6102 250 60.2209 236.998 36.6116 213.388C13.0024 189.779 0 158.39 0 124.998C0 91.6059 13.0024 60.2208 36.6116 36.6116C60.2209 13.0024 91.6102 0 124.998 0C158.386 0 189.775 13.0024 213.384 36.6116C236.993 60.2208 249.996 91.6102 249.996 124.998C249.996 158.386 236.993 189.775 213.384 213.384C189.775 236.993 158.386 249.996 124.998 249.996V250ZM124.998 8.54015C93.8904 8.54015 64.6446 20.6543 42.6495 42.6495C20.6543 64.6446 8.54015 93.8904 8.54015 124.998C8.54015 156.105 20.6543 185.351 42.6495 207.346C64.6446 229.341 93.8904 241.456 124.998 241.456C156.105 241.456 185.351 229.341 207.346 207.346C229.341 185.351 241.456 156.105 241.456 124.998C241.456 93.8904 229.341 64.6446 207.346 42.6495C185.351 20.6543 156.105 8.54015 124.998 8.54015Z" fill="#FF7630"/>
<path d="M141.169 118.495C141.169 110.556 135.767 103.878 128.435 101.939V134.977C128.435 135.003 128.431 135.028 128.427 135.054C135.758 133.115 141.169 126.437 141.169 118.495ZM143.598 144.32C142.872 144.32 142.283 144.909 142.283 145.635C142.283 146.361 142.872 146.95 143.598 146.95C144.324 146.95 144.914 146.361 144.914 145.635C144.914 144.909 144.324 144.32 143.598 144.32ZM107.106 144.32C106.38 144.32 105.791 144.909 105.791 145.635C105.791 146.361 106.38 146.95 107.106 146.95C107.832 146.95 108.421 146.361 108.421 145.635C108.421 144.909 107.832 144.32 107.106 144.32ZM125.352 144.32C124.626 144.32 124.037 144.909 124.037 145.635C124.037 146.361 124.626 146.95 125.352 146.95C126.078 146.95 126.667 146.361 126.667 145.635C126.667 144.909 126.078 144.32 125.352 144.32ZM211.984 95.8461V91.9304H206.415L205.92 83.1853C205.92 83.0401 205.912 82.8949 205.899 82.7498C205.89 82.6814 205.877 82.6174 205.869 82.5491C205.856 82.4765 205.852 82.4039 205.835 82.3313C205.818 82.2373 205.792 82.1477 205.766 82.058C205.754 82.0153 205.745 81.9683 205.732 81.9256C205.698 81.8146 205.66 81.7079 205.617 81.6054C205.608 81.584 205.6 81.5584 205.591 81.5371C204.946 79.9998 203.426 78.9195 201.654 78.9195H200.331C197.973 78.9195 196.065 80.8282 196.065 83.1853L195.441 91.9304H189.805V95.8461H195.125L195.134 96.2645L195.104 96.6659H195.138L196.06 145.665C196.06 147.937 197.837 149.786 200.074 149.918V156.016C200.074 168.177 190.181 178.071 178.019 178.071H168.241C177.042 174.608 183.289 166.029 183.289 156.016V140.076C185.035 140.05 186.525 138.978 187.162 137.458C187.17 137.437 187.179 137.411 187.187 137.39C187.23 137.283 187.268 137.18 187.303 137.069C187.315 137.027 187.324 136.98 187.337 136.933C187.362 136.843 187.388 136.753 187.405 136.664C187.418 136.591 187.426 136.519 187.439 136.446C187.448 136.378 187.465 136.314 187.469 136.245C187.482 136.104 187.49 135.959 187.49 135.81L188.229 86.8106H188.259L188.238 86.4092V85.9907H193.558V82.0751H187.99L187.495 73.33C187.495 73.1848 187.486 73.0396 187.473 72.8944C187.465 72.8261 187.452 72.7621 187.443 72.6937C187.431 72.6211 187.426 72.5486 187.409 72.476C187.392 72.382 187.367 72.2923 187.341 72.2027C187.328 72.16 187.32 72.113 187.307 72.0703C187.273 71.9593 187.234 71.8525 187.192 71.75C187.183 71.7287 187.174 71.7031 187.166 71.6817C186.521 70.1445 185.001 69.0642 183.229 69.0642H181.905C179.548 69.0642 177.639 70.9729 177.639 73.33L177.016 82.0751H171.379V85.9907H176.7L176.708 86.4092L176.679 86.8106H176.713L177.635 135.81C177.635 138.081 179.411 139.93 181.649 140.063V156.011C181.649 166.968 173.617 176.081 163.13 177.78C153.197 176.17 145.473 167.908 144.683 157.728H148.872C152.792 157.728 155.969 154.551 155.969 150.631V64.1963C155.969 60.2764 152.792 57.0994 148.872 57.0994H101.884C97.964 57.0994 94.7871 60.2764 94.7871 64.1963V150.644C94.7871 154.564 97.964 157.741 101.884 157.741H124.609C125.493 170.009 135.75 179.723 148.236 179.723H159.594C160.794 179.723 161.977 179.633 163.13 179.458C164.283 179.633 165.465 179.723 166.665 179.723H178.024C191.09 179.723 201.723 169.091 201.723 156.024V149.935C203.469 149.909 204.959 148.838 205.596 147.318C205.604 147.296 205.613 147.271 205.621 147.249C205.664 147.142 205.702 147.04 205.736 146.929C205.749 146.886 205.758 146.839 205.771 146.792C205.796 146.703 205.822 146.613 205.839 146.523C205.852 146.451 205.86 146.378 205.873 146.306C205.882 146.237 205.899 146.173 205.903 146.105C205.916 145.964 205.924 145.819 205.924 145.669L206.663 96.6702H206.693L206.672 96.2688V95.8503H211.992L211.984 95.8461ZM143.598 148.432C142.053 148.432 140.801 147.181 140.801 145.635C140.801 144.089 142.053 142.838 143.598 142.838C145.144 142.838 146.395 144.089 146.395 145.635C146.395 147.181 145.144 148.432 143.598 148.432ZM104.314 66.4979H146.395V92.0628H104.314V66.4979ZM107.111 148.432C105.565 148.432 104.314 147.181 104.314 145.635C104.314 144.089 105.565 142.838 107.111 142.838C108.656 142.838 109.907 144.089 109.907 145.635C109.907 147.181 108.656 148.432 107.111 148.432ZM105.847 118.495C105.847 109.899 111.812 102.7 119.827 100.799C120.028 100.5 120.365 100.304 120.753 100.304H127.325C127.709 100.304 128.051 100.5 128.252 100.799C136.267 102.7 142.232 109.899 142.232 118.495C142.232 128.542 134.089 136.685 124.041 136.685C113.994 136.685 105.851 128.542 105.851 118.495H105.847ZM137.27 145.635C137.27 147.181 136.019 148.432 134.473 148.432C132.927 148.432 131.676 147.181 131.676 145.635C131.676 144.089 132.927 142.838 134.473 142.838C136.019 142.838 137.27 144.089 137.27 145.635ZM116.227 148.432C114.681 148.432 113.43 147.181 113.43 145.635C113.43 144.089 114.681 142.838 116.227 142.838C117.773 142.838 119.024 144.089 119.024 145.635C119.024 147.181 117.773 148.432 116.227 148.432ZM122.555 145.635C122.555 144.089 123.807 142.838 125.352 142.838C126.898 142.838 128.149 144.089 128.149 145.635C128.149 147.181 126.898 148.432 125.352 148.432C123.807 148.432 122.555 147.181 122.555 145.635ZM148.227 178.079C136.642 178.079 127.124 169.099 126.245 157.741H143.03C143.697 167.011 149.717 174.817 158.01 178.079H148.231H148.227ZM134.473 144.32C133.747 144.32 133.158 144.909 133.158 145.635C133.158 146.361 133.747 146.95 134.473 146.95C135.199 146.95 135.788 146.361 135.788 145.635C135.788 144.909 135.199 144.32 134.473 144.32ZM116.227 144.32C115.501 144.32 114.912 144.909 114.912 145.635C114.912 146.361 115.501 146.95 116.227 146.95C116.953 146.95 117.542 146.361 117.542 145.635C117.542 144.909 116.953 144.32 116.227 144.32ZM119.639 101.935C112.311 103.878 106.906 110.552 106.906 118.49C106.906 126.428 112.311 133.111 119.647 135.05C119.647 135.024 119.639 134.998 119.639 134.973V101.935Z" fill="#FF7630"/>
</svg>
