<svg width="298" height="141" viewBox="0 0 298 141" fill="none" xmlns="http://www.w3.org/2000/svg">
<path d="M286.454 10.7258H12.2795V100.4H286.454V10.7258Z" fill="#D5652C"/>
<path opacity="0.35" d="M286.454 10.7258H12.2795V100.4H286.454V10.7258Z" fill="url(#paint0_linear_8_354)"/>
<path d="M75.837 78.8698V83.618C75.837 84.5401 75.094 85.2858 74.1754 85.2858H46.9459C46.0273 85.2858 45.2843 84.5401 45.2843 83.618V61.6039C45.2843 60.6819 46.0273 59.9362 46.9459 59.9362H73.3612C74.2798 59.9362 75.0228 60.6819 75.0228 61.6039V66.3522C75.0228 67.2742 74.2798 68.0199 73.3612 68.0199H54.1242V68.6465H70.8545C71.7731 68.6465 72.5161 69.3923 72.5161 70.3143V74.5908C72.5161 75.5128 71.7731 76.2586 70.8545 76.2586H54.1242V77.1996H74.1778C75.0964 77.1996 75.8394 77.9454 75.8394 78.8674L75.837 78.8698ZM107.263 59.9362H101.749C100.83 59.9362 100.087 60.6819 100.087 61.6039V73.0517L87.0483 60.4055C86.7397 60.1053 86.3243 59.9362 85.8947 59.9362H80.3804C79.4618 59.9362 78.7188 60.6819 78.7188 61.6039V83.618C78.7188 84.5401 79.4618 85.2858 80.3804 85.2858H85.8947C86.8133 85.2858 87.5563 84.5401 87.5563 83.618V72.1702L100.595 84.8164C100.904 85.1166 101.319 85.2858 101.749 85.2858H107.263C108.182 85.2858 108.925 84.5401 108.925 83.618V61.6039C108.925 60.6819 108.182 59.9362 107.263 59.9362ZM145.298 71.6747C145.322 71.9844 145.334 72.2989 145.334 72.611C145.334 74.4526 144.928 76.2181 144.13 77.8572C143.337 79.4844 142.181 80.9258 140.695 82.1433C139.238 83.3369 137.448 84.2923 135.373 84.9808C133.322 85.6622 130.98 86.0101 128.411 86.0101C125.843 86.0101 123.5 85.6646 121.449 84.9808C119.374 84.2899 117.582 83.3345 116.127 82.1433C114.641 80.9258 113.485 79.4844 112.692 77.8572C111.894 76.2181 111.489 74.4526 111.489 72.611C111.489 70.7693 111.892 69.0039 112.692 67.3648C113.485 65.7375 114.641 64.2961 116.127 63.0787C117.582 61.8851 119.374 60.9297 121.449 60.2411C123.5 59.5598 125.843 59.2119 128.411 59.2119C130.132 59.2119 131.751 59.3787 133.223 59.7075C134.692 60.0363 136.055 60.4937 137.277 61.0655C138.523 61.6492 139.641 62.3592 140.605 63.1716C141.574 63.9888 142.402 64.9013 143.069 65.8805C143.34 66.276 143.425 66.7691 143.307 67.2337C143.188 67.6983 142.877 68.089 142.452 68.3058L140.38 69.366H143.546C144.358 69.366 145.054 69.9569 145.187 70.7622C145.236 71.0576 145.272 71.3626 145.298 71.6699V71.6747ZM124.589 75.3151V71.0386C124.589 70.1165 125.332 69.3708 126.251 69.3708H134.747C134.284 68.9277 133.698 68.5274 132.995 68.1748C131.834 67.5935 130.294 67.2981 128.411 67.2981C126.999 67.2981 125.76 67.4624 124.725 67.7888C123.721 68.1033 122.88 68.5226 122.227 69.0373C121.608 69.5233 121.162 70.057 120.865 70.6716C120.566 71.2863 120.421 71.9201 120.421 72.6134C120.421 73.3067 120.566 73.9428 120.865 74.5551C121.164 75.1698 121.608 75.7034 122.227 76.1895C122.88 76.7017 123.721 77.121 124.725 77.4355C125.76 77.7619 126.999 77.9263 128.411 77.9263C130.407 77.9263 132.052 77.6094 133.301 76.9852H126.251C125.332 76.9852 124.589 76.2395 124.589 75.3175V75.3151ZM155.078 59.9362H149.564C148.645 59.9362 147.902 60.6819 147.902 61.6039V83.618C147.902 84.5401 148.645 85.2858 149.564 85.2858H155.078C155.997 85.2858 156.74 84.5401 156.74 83.618V61.6039C156.74 60.6819 155.997 59.9362 155.078 59.9362ZM188.949 59.9362H183.435C182.516 59.9362 181.773 60.6819 181.773 61.6039V73.0517L168.734 60.4055C168.426 60.1053 168.01 59.9362 167.581 59.9362H162.066C161.148 59.9362 160.405 60.6819 160.405 61.6039V83.618C160.405 84.5401 161.148 85.2858 162.066 85.2858H167.581C168.499 85.2858 169.242 84.5401 169.242 83.618V72.1702L182.281 84.8164C182.59 85.1166 183.005 85.2858 183.435 85.2858H188.949C189.868 85.2858 190.611 84.5401 190.611 83.618V61.6039C190.611 60.6819 189.868 59.9362 188.949 59.9362ZM223.165 77.202H203.111V76.2609H219.841C220.76 76.2609 221.503 75.5152 221.503 74.5932V70.3167C221.503 69.3946 220.76 68.6489 219.841 68.6489H203.111V68.0223H222.348C223.267 68.0223 224.01 67.2766 224.01 66.3546V61.6063C224.01 60.6843 223.267 59.9386 222.348 59.9386H195.933C195.014 59.9386 194.271 60.6843 194.271 61.6063V83.6204C194.271 84.5425 195.014 85.2882 195.933 85.2882H223.162C224.081 85.2882 224.824 84.5425 224.824 83.6204V78.8721C224.824 77.9501 224.081 77.2044 223.162 77.2044L223.165 77.202ZM255.787 73.2328C255.291 72.2655 254.577 71.4412 253.663 70.7836C252.806 70.1689 251.773 69.6924 250.596 69.3684C249.49 69.0659 248.239 68.8776 246.86 68.8085C244.377 68.7037 242.226 68.6108 240.41 68.525C238.589 68.4416 237.177 68.3773 236.182 68.3368C235.883 68.3225 235.648 68.2963 235.466 68.263C235.686 68.1557 235.983 68.0414 236.379 67.9246C237.077 67.7221 237.925 67.5673 238.898 67.4624C239.914 67.3529 241.03 67.2981 242.217 67.2981C242.983 67.2981 243.8 67.3481 244.642 67.4434C245.497 67.5434 246.352 67.6816 247.182 67.8579C248.018 68.0366 248.83 68.2463 249.592 68.4798C250.347 68.7132 251.035 68.9586 251.631 69.2112C252.046 69.3851 252.512 69.3827 252.925 69.2064C253.338 69.0301 253.663 68.6918 253.824 68.2701L255.486 63.9292C255.799 63.1073 255.424 62.1829 254.629 61.816C253.214 61.1632 251.738 60.6581 250.242 60.3198C248.823 59.9981 247.512 59.748 246.335 59.5717C244.949 59.3739 243.562 59.2715 242.214 59.2715C239.954 59.2715 237.87 59.474 236.021 59.8742C234.131 60.2816 232.489 60.8606 231.133 61.592C229.7 62.3663 228.567 63.3098 227.767 64.3938C226.896 65.5755 226.455 66.8668 226.455 68.232C226.455 69.5257 226.737 70.6836 227.295 71.6771C227.836 72.642 228.591 73.4615 229.538 74.1191C230.433 74.7385 231.492 75.2174 232.683 75.5367C233.804 75.8392 235.041 76.0251 236.365 76.0942C237.59 76.1585 238.779 76.2109 239.9 76.2538C241.022 76.2967 242.041 76.3372 242.957 76.3777C243.873 76.4206 244.65 76.4563 245.286 76.4873C246.071 76.5254 246.397 76.5492 246.52 76.5611C246.546 76.5611 246.572 76.5659 246.596 76.5659C247.249 76.5945 247.636 76.6731 247.852 76.7374C247.709 76.8661 247.394 77.0853 246.734 77.3283C245.393 77.8239 243.235 78.074 240.32 78.074C239.377 78.055 238.38 77.9644 237.362 77.8119C236.491 77.6761 235.496 77.4522 234.404 77.1448C233.355 76.8518 232.294 76.4301 231.25 75.8964C230.841 75.6868 230.367 75.6558 229.935 75.813C229.503 75.9679 229.156 76.2943 228.973 76.716L227.062 81.1188C226.713 81.9241 227.046 82.8628 227.824 83.2678C229.223 83.9921 230.689 84.5567 232.183 84.9427C233.612 85.312 234.946 85.5884 236.133 85.7623C237.55 85.9839 238.953 86.0958 240.306 86.0958C242.903 86.0958 245.196 85.8766 247.123 85.443C249.103 84.9975 250.795 84.3614 252.153 83.5513C253.594 82.6913 254.693 81.6477 255.417 80.4541C256.16 79.2295 256.537 77.9001 256.537 76.5063C256.537 75.3008 256.286 74.1977 255.79 73.228L255.787 73.2328Z" fill="url(#paint1_linear_8_354)" stroke="url(#paint2_linear_8_354)" stroke-width="5" stroke-miterlimit="10"/>
<path d="M3.52979 0.364502V141H294.641V0.364502H3.52979ZM19.7094 92.364V17.5493H278.462V92.364H19.7094Z" fill="url(#paint3_linear_8_354)"/>
<path d="M292.979 139.332H5.19144V2.03223H292.979V139.332ZM280.123 15.8816H18.0477V94.0317H280.123V15.8816Z" fill="url(#paint4_linear_8_354)"/>
<path d="M292.979 139.332H5.19144V2.03223H292.979V139.332ZM280.123 15.8816H18.0477V94.0317H280.123V15.8816Z" fill="url(#paint5_linear_8_354)"/>
<path d="M92.0688 29.5856V40.5927C92.0688 42.4057 91.7175 44.145 91.0244 45.7627C90.3312 47.3827 89.3247 48.8242 88.0382 50.044C86.7587 51.2567 85.1968 52.2287 83.3951 52.9315C81.6005 53.632 79.5733 53.9894 77.3705 53.9894C75.1676 53.9894 73.1404 53.6344 71.3459 52.9315C69.5465 52.2287 67.9822 51.259 66.6933 50.0487C65.3925 48.8265 64.3789 47.3851 63.6857 45.7627C62.9926 44.1473 62.6413 42.4057 62.6413 40.5927V29.5856C62.6413 28.6636 63.3843 27.9179 64.3029 27.9179H69.8172C70.7358 27.9179 71.4788 28.6636 71.4788 29.5856V40.5927C71.4788 41.3408 71.5998 42.0555 71.8349 42.7202C72.0604 43.354 72.3927 43.8972 72.8532 44.3808C73.2995 44.8526 73.8905 45.2338 74.6098 45.522C75.3599 45.8198 76.288 45.9723 77.3681 45.9723C78.4482 45.9723 79.3644 45.8222 80.1027 45.5244C80.8148 45.2385 81.4035 44.8549 81.8498 44.3832C82.3079 43.8996 82.6402 43.3564 82.8681 42.7226C83.1055 42.0579 83.2242 41.3432 83.2242 40.5951V29.588C83.2242 28.666 83.9672 27.9203 84.8858 27.9203H90.4001C91.3187 27.9203 92.0617 28.666 92.0617 29.588L92.0688 29.5856ZM124.637 40.3759C124.556 40.4783 124.471 40.576 124.381 40.6713C124.48 40.7833 124.575 40.9 124.665 41.0168C125.178 41.7005 125.563 42.3867 125.807 43.0633C126.097 43.8352 126.258 44.6357 126.284 45.441C126.284 45.4601 126.284 45.4791 126.284 45.4982C126.284 46.8419 126.037 48.026 125.548 49.0195C125.062 50.0106 124.39 50.8421 123.552 51.4901C122.74 52.1167 121.784 52.5789 120.708 52.8648C119.709 53.1317 118.622 53.2675 117.478 53.2675H96.9232C96.0045 53.2675 95.2615 52.5218 95.2615 51.5997V29.5856C95.2615 28.6636 96.0045 27.9179 96.9232 27.9179H117.478C118.664 27.9179 119.783 28.0584 120.798 28.3396C121.893 28.6398 122.854 29.1186 123.654 29.7619C124.483 30.4266 125.138 31.2843 125.603 32.3088C126.054 33.3094 126.284 34.4983 126.284 35.8444C126.284 35.8611 126.284 35.8801 126.284 35.8968C126.258 36.745 126.097 37.5669 125.807 38.3412C125.558 39.0322 125.164 39.7159 124.637 40.3759ZM117.667 44.8383C117.667 44.6477 117.644 44.5547 117.637 44.5238C117.589 44.4547 117.561 44.4356 117.561 44.4356C117.475 44.388 117.397 44.3594 117.321 44.3475C117.06 44.307 116.946 44.3046 116.917 44.3046H104.104V45.341H116.917C116.917 45.341 116.996 45.3386 117.233 45.3005C117.288 45.2909 117.378 45.2671 117.508 45.1956C117.527 45.1861 117.577 45.1527 117.649 45.0574C117.656 45.0312 117.67 44.9645 117.67 44.8406L117.667 44.8383ZM117.667 36.3471C117.667 36.1565 117.644 36.0636 117.637 36.0326C117.608 35.9897 117.589 35.9754 117.589 35.9754C117.508 35.9349 117.413 35.9016 117.321 35.8873C117.06 35.8468 116.946 35.8444 116.917 35.8444H104.104V36.8808H116.917C116.917 36.8808 116.996 36.8784 117.233 36.8403C117.264 36.8355 117.338 36.8188 117.466 36.7426C117.535 36.7021 117.601 36.6282 117.649 36.5639C117.656 36.5377 117.67 36.471 117.67 36.3471H117.667ZM57.8344 38.7653C56.9775 38.1506 55.9449 37.6741 54.7675 37.3477C53.6613 37.0452 52.408 36.8569 51.0312 36.7879C48.5482 36.683 46.3976 36.5901 44.584 36.5043C42.7634 36.421 41.351 36.3566 40.354 36.3161C40.0549 36.3018 39.8199 36.2756 39.6371 36.2423C39.8579 36.1351 40.1546 36.0207 40.551 35.904C41.2465 35.7014 42.094 35.5466 43.0696 35.4418C44.0832 35.3322 45.2012 35.2774 46.3881 35.2774C47.1548 35.2774 47.9714 35.3274 48.8141 35.4227C49.671 35.5228 50.5256 35.6609 51.354 35.8372C52.1872 36.0159 52.999 36.2232 53.7634 36.4615C54.5182 36.6949 55.2043 36.9403 55.8024 37.1929C56.2179 37.3668 56.6831 37.3644 57.0961 37.1881C57.5092 37.0118 57.8344 36.6735 57.9934 36.2518L59.6551 31.9109C59.9684 31.089 59.5957 30.1646 58.7981 29.7977C57.3834 29.1449 55.9069 28.6398 54.4114 28.3015C52.9919 27.9798 51.6792 27.7297 50.5042 27.5534C49.1155 27.3556 47.7293 27.2532 46.3833 27.2532C44.1235 27.2532 42.0394 27.4557 40.1902 27.8559C38.3007 28.2633 36.658 28.8423 35.3026 29.5737C33.8712 30.348 32.7366 31.2915 31.9342 32.3755C31.0631 33.5572 30.6216 34.8485 30.6216 36.2137C30.6216 37.5074 30.904 38.6653 31.4619 39.6587C32.0031 40.6213 32.7579 41.4432 33.7051 42.0984C34.6 42.7179 35.6587 43.1967 36.8503 43.516C37.9707 43.8186 39.2098 44.0044 40.532 44.0735C41.7545 44.1378 42.9438 44.1902 44.0642 44.2331C45.187 44.276 46.2053 44.3165 47.1216 44.3594C48.0379 44.4023 48.8141 44.438 49.4503 44.469C50.2027 44.5071 50.5374 44.5285 50.6846 44.5428C50.7107 44.5452 50.7368 44.5476 50.7629 44.5476C51.4157 44.5762 51.8027 44.6548 52.0187 44.7191C51.8762 44.8478 51.5605 45.067 50.9006 45.31C49.5594 45.8055 47.4017 46.0557 44.4867 46.0557C43.5443 46.0366 42.5473 45.9461 41.529 45.7913C40.6578 45.6555 39.6632 45.4315 38.5713 45.1265C37.5221 44.8335 36.461 44.4118 35.4166 43.8781C35.0083 43.6685 34.5311 43.6399 34.1015 43.7947C33.6695 43.9496 33.3229 44.276 33.1401 44.6977L31.2292 49.1005C30.8803 49.9058 31.2126 50.8445 31.9912 51.2495C33.3917 51.9738 34.8563 52.5384 36.3494 52.9244C37.7785 53.2937 39.1125 53.5701 40.2994 53.744C41.7165 53.9655 43.1194 54.0775 44.4725 54.0775C47.0694 54.0775 49.3624 53.8583 51.2899 53.4247C53.2696 52.9792 54.9621 52.3431 56.3199 51.533C57.7608 50.673 58.8599 49.6294 59.5839 48.4358C60.3268 47.2112 60.7043 45.8818 60.7043 44.4857C60.7043 43.2801 60.4527 42.177 59.9565 41.2074C59.4604 40.2401 58.7459 39.4157 57.832 38.7582L57.8344 38.7653ZM167.521 27.9179H162.007C161.088 27.9179 160.345 28.6636 160.345 29.5856V51.5997C160.345 52.5218 161.088 53.2675 162.007 53.2675H167.521C168.44 53.2675 169.183 52.5218 169.183 51.5997V29.5856C169.183 28.6636 168.44 27.9179 167.521 27.9179ZM267.977 27.9179H242.753C241.834 27.9179 241.091 28.6636 241.091 29.5856V34.3339C241.091 35.2559 241.834 36.0016 242.753 36.0016H250.961V51.5997C250.961 52.5218 251.704 53.2675 252.623 53.2675H258.107C259.025 53.2675 259.768 52.5218 259.768 51.5997V36.0016H267.977C268.895 36.0016 269.638 35.2559 269.638 34.3339V29.5856C269.638 28.6636 268.895 27.9179 267.977 27.9179ZM236.707 27.9179H231.193C230.274 27.9179 229.531 28.6636 229.531 29.5856V36.1255H217V29.5856C217 28.6636 216.257 27.9179 215.338 27.9179H209.824C208.906 27.9179 208.163 28.6636 208.163 29.5856V51.5997C208.163 52.5218 208.906 53.2675 209.824 53.2675H215.338C216.257 53.2675 217 52.5218 217 51.5997V44.2093H229.531V51.5997C229.531 52.5218 230.274 53.2675 231.193 53.2675H236.707C237.626 53.2675 238.369 52.5218 238.369 51.5997V29.5856C238.369 28.6636 237.626 27.9179 236.707 27.9179ZM205.556 39.6564C205.58 39.9661 205.592 40.2806 205.592 40.5927C205.592 42.4343 205.188 44.1998 204.388 45.8389C203.595 47.4661 202.439 48.9075 200.953 50.125C199.496 51.3186 197.706 52.274 195.631 52.9625C193.58 53.6439 191.238 53.9918 188.669 53.9918C186.101 53.9918 183.758 53.6463 181.707 52.9625C179.632 52.2716 177.842 51.3162 176.385 50.125C174.899 48.9075 173.743 47.4661 172.95 45.8389C172.153 44.1998 171.747 42.4367 171.747 40.5927C171.747 38.7486 172.153 36.9856 172.95 35.3465C173.743 33.7192 174.899 32.2778 176.385 31.0604C177.84 29.8667 179.632 28.9114 181.707 28.2228C183.758 27.5414 186.098 27.1936 188.669 27.1936C190.39 27.1936 192.009 27.3604 193.481 27.6892C194.95 28.0179 196.313 28.4754 197.535 29.0472C198.779 29.6309 199.899 30.3409 200.863 31.1533C201.832 31.9705 202.66 32.883 203.327 33.8622C203.598 34.2577 203.683 34.7508 203.565 35.2154C203.446 35.68 203.135 36.0707 202.71 36.2875L200.638 37.3477H203.804C204.616 37.3477 205.312 37.9386 205.445 38.7439C205.494 39.0393 205.53 39.3443 205.556 39.6516V39.6564ZM184.847 43.2968V39.0202C184.847 38.0982 185.59 37.3525 186.509 37.3525H195.005C194.542 36.9094 193.956 36.5091 193.253 36.1565C192.092 35.5752 190.552 35.2797 188.669 35.2797C187.257 35.2797 186.018 35.4441 184.983 35.7705C183.979 36.085 183.138 36.5043 182.486 37.019C181.866 37.505 181.42 38.041 181.123 38.6533C180.826 39.2656 180.681 39.9018 180.681 40.5951C180.681 41.2884 180.826 41.9245 181.125 42.5368C181.424 43.1515 181.868 43.6851 182.488 44.1712C183.141 44.6834 183.981 45.1027 184.985 45.4196C186.02 45.746 187.259 45.9104 188.672 45.9104C190.668 45.9104 192.313 45.5935 193.561 44.9693H186.511C185.593 44.9693 184.85 44.2236 184.85 43.3016L184.847 43.2968ZM155.802 45.1837H138.006V29.5856C138.006 28.6636 137.263 27.9179 136.344 27.9179H130.83C129.911 27.9179 129.168 28.6636 129.168 29.5856V51.5997C129.168 52.5218 129.911 53.2675 130.83 53.2675H155.802C156.721 53.2675 157.464 52.5218 157.464 51.5997V46.8515C157.464 45.9294 156.721 45.1837 155.802 45.1837Z" fill="url(#paint6_linear_8_354)" stroke="url(#paint7_linear_8_354)" stroke-width="5" stroke-miterlimit="10"/>
<path d="M59.0403 44.4047C59.0403 45.4959 58.7483 46.5227 58.162 47.4876C57.578 48.4526 56.6784 49.2959 55.4678 50.0202C54.2571 50.7445 52.7427 51.3091 50.9244 51.7189C49.1061 52.1287 46.9554 52.3312 44.4701 52.3312C43.1954 52.3312 41.8898 52.2264 40.5534 52.0167C39.4045 51.8476 38.1416 51.5879 36.7625 51.2305C35.3833 50.8731 34.0469 50.3609 32.7508 49.6891L34.6617 45.2862C35.8106 45.8723 36.9643 46.3298 38.125 46.6538C39.2834 46.9802 40.335 47.216 41.275 47.3614C42.3812 47.5305 43.447 47.6234 44.4701 47.6449C47.6035 47.6449 49.9369 47.3614 51.4727 46.7967C53.0085 46.2321 53.7753 45.4864 53.7753 44.5643C53.7753 43.9782 53.5355 43.547 53.0536 43.2754C52.5718 43.0038 51.8311 42.8466 50.8294 42.8037C50.5992 42.7822 50.1671 42.756 49.5286 42.7251C48.8924 42.6941 48.1138 42.656 47.1952 42.6155C46.2765 42.5726 45.2534 42.5321 44.1235 42.4892C42.996 42.4487 41.8257 42.3939 40.6151 42.332C39.4045 42.27 38.2912 42.1009 37.2776 41.8293C36.264 41.5576 35.3857 41.1645 34.6451 40.6499C33.9045 40.1353 33.3229 39.5063 32.9051 38.763C32.4873 38.0197 32.2784 37.1429 32.2784 36.1375C32.2784 35.1321 32.6084 34.1839 33.2659 33.2904C33.9235 32.3994 34.8635 31.6227 36.086 30.9628C37.3085 30.3028 38.7921 29.7834 40.5344 29.407C42.2791 29.0306 44.2256 28.84 46.3786 28.84C47.6533 28.84 48.947 28.9353 50.2645 29.1235C51.392 29.2926 52.6501 29.5333 54.0411 29.8478C55.4298 30.1622 56.7828 30.6244 58.0979 31.232L56.4362 35.5729C55.7882 35.3013 55.0571 35.0392 54.2429 34.7866C53.4287 34.5341 52.5765 34.3149 51.6887 34.1267C50.8009 33.9385 49.9036 33.7908 48.9945 33.6859C48.0853 33.5811 47.2142 33.5287 46.3786 33.5287C45.1253 33.5287 43.9597 33.5859 42.8844 33.7026C41.8091 33.817 40.8738 33.9909 40.081 34.222C39.2882 34.4531 38.6662 34.7366 38.2176 35.0702C37.769 35.4061 37.5435 35.7825 37.5435 36.2018C37.5435 36.7474 37.7737 37.1572 38.2318 37.4288C38.69 37.7004 39.3713 37.8577 40.2685 37.9005C41.2703 37.9434 42.6803 38.0054 44.4986 38.0888C46.3169 38.1721 48.4675 38.2674 50.9528 38.3723C52.2062 38.4342 53.329 38.6034 54.3212 38.875C55.3135 39.1466 56.1585 39.5349 56.8588 40.0376C57.559 40.5403 58.0955 41.1598 58.4729 41.8936C58.848 42.6274 59.0379 43.466 59.0379 44.4095L59.0403 44.4047ZM90.4048 40.5046C90.4048 42.0985 90.101 43.6018 89.4957 45.017C88.8904 46.4322 88.0239 47.6735 86.894 48.7432C85.7665 49.8129 84.3968 50.6611 82.7898 51.2901C81.1804 51.9191 79.3739 52.2335 77.3681 52.2335C75.3623 52.2335 73.5558 51.9191 71.9464 51.2901C70.337 50.6611 68.965 49.8129 67.8256 48.7432C66.6862 47.6735 65.815 46.4322 65.2097 45.017C64.6044 43.6018 64.3005 42.0985 64.3005 40.5046V29.4975H69.8148V40.5046C69.8148 41.4481 69.9667 42.3439 70.2682 43.1944C70.5696 44.0426 71.0301 44.7931 71.6473 45.4435C72.2621 46.0939 73.0455 46.6061 73.9974 46.9849C74.9469 47.3614 76.0697 47.552 77.3657 47.552C78.6618 47.552 79.7775 47.3638 80.7175 46.9849C81.6575 46.6061 82.4361 46.0939 83.0509 45.4435C83.6657 44.7931 84.1262 44.045 84.43 43.1944C84.7315 42.3462 84.8834 41.4481 84.8834 40.5046V29.4975H90.3977V40.5046H90.4048ZM124.62 45.4101C124.62 46.5013 124.433 47.4281 124.055 48.1929C123.68 48.9576 123.172 49.5866 122.536 50.0798C121.898 50.573 121.147 50.9351 120.281 51.1638C119.415 51.3949 118.479 51.5093 117.478 51.5093H96.9232V29.4999H117.478C118.522 29.4999 119.483 29.6214 120.359 29.862C121.238 30.1027 121.988 30.4743 122.614 30.9794C123.241 31.4821 123.732 32.1278 124.086 32.914C124.442 33.7002 124.618 34.6485 124.618 35.7611C124.597 36.4329 124.471 37.0714 124.243 37.679C124.055 38.2031 123.751 38.7273 123.334 39.2514C122.916 39.7756 122.311 40.2044 121.515 40.5403C122.308 40.9168 122.914 41.3837 123.334 41.9388C123.751 42.494 124.055 43.0348 124.243 43.5589C124.473 44.1665 124.599 44.7859 124.618 45.4149L124.62 45.4101ZM119.324 36.259C119.324 35.7563 119.229 35.3584 119.042 35.063C118.854 34.77 118.629 34.5555 118.368 34.4174C118.107 34.2816 117.841 34.1934 117.568 34.1505C117.297 34.1076 117.076 34.0886 116.91 34.0886H102.435V38.4604H116.91C117.036 38.4604 117.228 38.439 117.489 38.3985C117.751 38.358 118.016 38.2579 118.289 38.1007C118.56 37.9434 118.802 37.7195 119.011 37.424C119.22 37.131 119.324 36.7427 119.324 36.2614V36.259ZM119.324 44.7502C119.324 44.2475 119.229 43.8496 119.042 43.5542C118.854 43.2611 118.629 43.0395 118.368 42.8942C118.107 42.7489 117.841 42.6536 117.568 42.6107C117.297 42.5678 117.076 42.5488 116.91 42.5488H102.435V46.9206H116.91C117.036 46.9206 117.228 46.8992 117.489 46.8587C117.751 46.8182 118.016 46.7229 118.289 46.5752C118.56 46.4274 118.802 46.2083 119.011 45.9152C119.22 45.6222 119.324 45.2338 119.324 44.7526V44.7502ZM130.823 51.5117V29.4999H136.337V46.7658H155.795V51.514H130.823V51.5117ZM162 51.5117V29.4999H167.514V51.514H162V51.5117ZM203.925 40.5046C203.925 42.0985 203.581 43.6018 202.89 45.017C202.202 46.4322 201.203 47.6735 199.897 48.7432C198.592 49.8129 196.994 50.6611 195.102 51.2901C193.213 51.9191 191.064 52.2335 188.662 52.2335C186.26 52.2335 184.114 51.9191 182.222 51.2901C180.333 50.6611 178.733 49.8129 177.427 48.7432C176.121 47.6735 175.124 46.4322 174.434 45.017C173.743 43.6018 173.399 42.0985 173.399 40.5046C173.399 38.9107 173.743 37.4074 174.434 35.9922C175.122 34.577 176.121 33.3357 177.427 32.266C178.733 31.1962 180.33 30.3481 182.222 29.7191C184.112 29.0901 186.26 28.7756 188.662 28.7756C190.271 28.7756 191.753 28.9281 193.111 29.2307C194.468 29.5356 195.705 29.9478 196.823 30.472C197.941 30.9961 198.926 31.6203 199.783 32.3422C200.64 33.0665 201.359 33.8575 201.946 34.7175L197.089 37.2025C196.42 36.1542 195.387 35.2798 193.986 34.577C192.586 33.8741 190.81 33.5239 188.66 33.5239C187.072 33.5239 185.678 33.7121 184.477 34.091C183.276 34.4674 182.267 34.9772 181.453 35.6157C180.639 36.2566 180.026 36.9952 179.62 37.8338C179.212 38.6725 179.01 39.5635 179.01 40.507C179.01 41.4504 179.214 42.3415 179.62 43.1801C180.029 44.0188 180.639 44.7573 181.453 45.3982C182.267 46.0391 183.276 46.5466 184.477 46.923C185.678 47.2994 187.072 47.49 188.66 47.49C191.019 47.49 192.959 47.0874 194.473 46.2797C195.988 45.4721 197.058 44.45 197.685 43.2135H186.5V38.9369H203.795C203.835 39.1895 203.868 39.4444 203.89 39.7065C203.911 39.9685 203.921 40.2354 203.921 40.5094L203.925 40.5046ZM231.186 51.5117V42.4535H215.331V51.5117H209.817V29.4999H215.331V37.7076H231.186V29.4999H236.7V51.514H231.186V51.5117ZM258.102 34.2458V51.5117H252.618V34.2458H242.748V29.4975H267.972V34.2458H258.102ZM46.9459 83.5346V61.5205H73.3612V66.2687H52.4626V70.2308H70.8545V74.5074H52.4626V78.7839H74.1778V83.5322H46.9483L46.9459 83.5346ZM101.749 83.5346L85.8947 68.1557V83.5346H80.3804V61.5205H85.8947L101.749 76.8994V61.5205H107.263V83.5346H101.749ZM143.672 72.5275C143.672 74.1214 143.328 75.6247 142.637 77.0399C141.949 78.4551 140.949 79.6964 139.644 80.7661C138.338 81.8359 136.741 82.684 134.849 83.313C132.957 83.942 130.811 84.2565 128.409 84.2565C126.007 84.2565 123.861 83.942 121.969 83.313C120.077 82.684 118.479 81.8359 117.174 80.7661C115.868 79.6964 114.871 78.4551 114.18 77.0399C113.492 75.6247 113.145 74.1214 113.145 72.5275C113.145 70.9336 113.49 69.4303 114.18 68.0151C114.869 66.5999 115.868 65.3586 117.174 64.2889C118.479 63.2192 120.077 62.371 121.969 61.742C123.858 61.1131 126.004 60.7986 128.409 60.7986C130.018 60.7986 131.499 60.951 132.857 61.2536C134.215 61.5586 135.452 61.9731 136.57 62.4949C137.688 63.019 138.673 63.6432 139.53 64.3651C140.387 65.0894 141.106 65.8804 141.692 66.7405L136.836 69.2254C136.166 68.1771 135.134 67.3027 133.733 66.5999C132.333 65.8971 130.557 65.5469 128.406 65.5469C126.818 65.5469 125.425 65.7351 124.224 66.1139C123.023 66.4903 122.014 67.0002 121.2 67.6387C120.385 68.2796 119.773 69.0181 119.367 69.8568C118.959 70.6954 118.757 71.5864 118.757 72.5299C118.757 73.4734 118.961 74.3644 119.367 75.203C119.775 76.0417 120.385 76.7803 121.2 77.4211C122.014 78.0596 123.023 78.5695 124.224 78.9459C125.425 79.3224 126.818 79.513 128.406 79.513C130.766 79.513 132.703 79.1103 134.22 78.3027C135.734 77.495 136.805 76.4729 137.431 75.2364H126.246V70.9599H143.542C143.582 71.2124 143.615 71.4673 143.636 71.7294C143.658 71.9915 143.667 72.2583 143.667 72.5323L143.672 72.5275ZM149.564 83.5346V61.5205H155.078V83.5346H149.564ZM183.435 83.5346L167.581 68.1557V83.5346H162.066V61.5205H167.581L183.435 76.8994V61.5205H188.949V83.5346H183.435ZM195.938 83.5346V61.5205H222.353V66.2687H201.454V70.2308H219.846V74.5074H201.454V78.7839H223.169V83.5322H195.94L195.938 83.5346ZM254.876 76.4276C254.876 77.5188 254.584 78.5457 253.998 79.5106C253.414 80.4755 252.514 81.3189 251.303 82.0432C250.093 82.7674 248.578 83.3321 246.76 83.7419C244.942 84.1516 242.791 84.3542 240.306 84.3542C239.031 84.3542 237.725 84.2493 236.389 84.0397C235.24 83.8705 233.977 83.6108 232.598 83.2535C231.219 82.8961 229.882 82.3839 228.586 81.712L230.497 77.3092C231.646 77.8953 232.8 78.3527 233.961 78.6767C235.119 79.0031 236.171 79.239 237.111 79.3843C238.217 79.5535 239.283 79.6464 240.306 79.6678C243.439 79.6678 245.772 79.3843 247.308 78.8197C248.844 78.255 249.611 77.5093 249.611 76.5873C249.611 76.0012 249.371 75.57 248.889 75.2983C248.407 75.0267 247.667 74.8695 246.665 74.8266C246.435 74.8052 246.003 74.779 245.364 74.748C244.726 74.717 243.949 74.6813 243.031 74.6384C242.112 74.5979 241.089 74.555 239.959 74.5121C238.832 74.4692 237.661 74.4168 236.451 74.3549C235.24 74.2929 234.127 74.1238 233.113 73.8522C232.1 73.5806 231.224 73.1875 230.481 72.6729C229.74 72.1582 229.158 71.5316 228.741 70.7859C228.323 70.0426 228.114 69.1658 228.114 68.1604C228.114 67.155 228.444 66.2044 229.102 65.3134C229.759 64.4223 230.699 63.6456 231.922 62.9857C233.144 62.3257 234.625 61.8064 236.37 61.4299C238.115 61.0535 240.061 60.8629 242.214 60.8629C243.489 60.8629 244.783 60.9582 246.1 61.1464C247.228 61.3156 248.486 61.5562 249.877 61.8707C251.265 62.1852 252.618 62.6474 253.933 63.2549L252.272 67.5958C251.624 67.3242 250.893 67.0621 250.078 66.8096C249.264 66.557 248.412 66.3378 247.524 66.1496C246.637 65.9614 245.739 65.8137 244.83 65.7089C243.921 65.604 243.05 65.5516 242.214 65.5516C240.961 65.5516 239.795 65.6088 238.72 65.7255C237.645 65.8399 236.709 66.0138 235.917 66.2449C235.121 66.476 234.502 66.7595 234.053 67.0931C233.605 67.429 233.379 67.8054 233.379 68.2248C233.379 68.7703 233.609 69.1778 234.067 69.4517C234.526 69.7257 235.204 69.8806 236.104 69.9235C237.106 69.9664 238.516 70.0283 240.334 70.1117C242.152 70.1951 244.303 70.2904 246.788 70.3952C248.042 70.4571 249.165 70.6263 250.157 70.8979C251.149 71.1695 251.994 71.5578 252.694 72.0606C253.395 72.5633 253.931 73.1827 254.309 73.9165C254.684 74.6503 254.873 75.4889 254.873 76.4324L254.876 76.4276Z" fill="#F1F1F2" stroke="#F1F1F2" stroke-width="5" stroke-linecap="round" stroke-linejoin="round"/>
<path d="M59.0403 44.4047C59.0403 45.4959 58.7483 46.5227 58.162 47.4876C57.578 48.4526 56.6784 49.2959 55.4678 50.0202C54.2571 50.7445 52.7427 51.3091 50.9244 51.7189C49.1061 52.1287 46.9554 52.3312 44.4701 52.3312C43.1954 52.3312 41.8898 52.2264 40.5534 52.0167C39.4045 51.8476 38.1416 51.5879 36.7625 51.2305C35.3833 50.8731 34.0469 50.3609 32.7508 49.6891L34.6617 45.2862C35.8106 45.8723 36.9643 46.3298 38.125 46.6538C39.2834 46.9802 40.335 47.216 41.275 47.3614C42.3812 47.5305 43.447 47.6234 44.4701 47.6449C47.6035 47.6449 49.9369 47.3614 51.4727 46.7967C53.0085 46.2321 53.7753 45.4864 53.7753 44.5643C53.7753 43.9782 53.5355 43.547 53.0536 43.2754C52.5718 43.0038 51.8311 42.8466 50.8294 42.8037C50.5992 42.7822 50.1671 42.756 49.5286 42.7251C48.8924 42.6941 48.1138 42.656 47.1952 42.6155C46.2765 42.5726 45.2534 42.5321 44.1235 42.4892C42.996 42.4487 41.8257 42.3939 40.6151 42.332C39.4045 42.27 38.2912 42.1009 37.2776 41.8293C36.264 41.5576 35.3857 41.1645 34.6451 40.6499C33.9045 40.1353 33.3229 39.5063 32.9051 38.763C32.4873 38.0197 32.2784 37.1429 32.2784 36.1375C32.2784 35.1321 32.6084 34.1839 33.2659 33.2904C33.9235 32.3994 34.8635 31.6227 36.086 30.9628C37.3085 30.3028 38.7921 29.7834 40.5344 29.407C42.2791 29.0306 44.2256 28.84 46.3786 28.84C47.6533 28.84 48.947 28.9353 50.2645 29.1235C51.392 29.2926 52.6501 29.5333 54.0411 29.8478C55.4298 30.1622 56.7828 30.6244 58.0979 31.232L56.4362 35.5729C55.7882 35.3013 55.0571 35.0392 54.2429 34.7866C53.4287 34.5341 52.5765 34.3149 51.6887 34.1267C50.8009 33.9385 49.9036 33.7908 48.9945 33.6859C48.0853 33.5811 47.2142 33.5287 46.3786 33.5287C45.1253 33.5287 43.9597 33.5859 42.8844 33.7026C41.8091 33.817 40.8738 33.9909 40.081 34.222C39.2882 34.4531 38.6662 34.7366 38.2176 35.0702C37.769 35.4061 37.5435 35.7825 37.5435 36.2018C37.5435 36.7474 37.7737 37.1572 38.2318 37.4288C38.69 37.7004 39.3713 37.8577 40.2685 37.9005C41.2703 37.9434 42.6803 38.0054 44.4986 38.0888C46.3169 38.1721 48.4675 38.2674 50.9528 38.3723C52.2062 38.4342 53.329 38.6034 54.3212 38.875C55.3135 39.1466 56.1585 39.5349 56.8588 40.0376C57.559 40.5403 58.0955 41.1598 58.4729 41.8936C58.848 42.6274 59.0379 43.466 59.0379 44.4095L59.0403 44.4047ZM90.4048 40.5046C90.4048 42.0985 90.101 43.6018 89.4957 45.017C88.8904 46.4322 88.0239 47.6735 86.894 48.7432C85.7665 49.8129 84.3968 50.6611 82.7898 51.2901C81.1804 51.9191 79.3739 52.2335 77.3681 52.2335C75.3623 52.2335 73.5558 51.9191 71.9464 51.2901C70.337 50.6611 68.965 49.8129 67.8256 48.7432C66.6862 47.6735 65.815 46.4322 65.2097 45.017C64.6044 43.6018 64.3005 42.0985 64.3005 40.5046V29.4975H69.8148V40.5046C69.8148 41.4481 69.9667 42.3439 70.2682 43.1944C70.5696 44.0426 71.0301 44.7931 71.6473 45.4435C72.2621 46.0939 73.0455 46.6061 73.9974 46.9849C74.9469 47.3614 76.0697 47.552 77.3657 47.552C78.6618 47.552 79.7775 47.3638 80.7175 46.9849C81.6575 46.6061 82.4361 46.0939 83.0509 45.4435C83.6657 44.7931 84.1262 44.045 84.43 43.1944C84.7315 42.3462 84.8834 41.4481 84.8834 40.5046V29.4975H90.3977V40.5046H90.4048ZM124.62 45.4101C124.62 46.5013 124.433 47.4281 124.055 48.1929C123.68 48.9576 123.172 49.5866 122.536 50.0798C121.898 50.573 121.147 50.9351 120.281 51.1638C119.415 51.3949 118.479 51.5093 117.478 51.5093H96.9232V29.4999H117.478C118.522 29.4999 119.483 29.6214 120.359 29.862C121.238 30.1027 121.988 30.4743 122.614 30.9794C123.241 31.4821 123.732 32.1278 124.086 32.914C124.442 33.7002 124.618 34.6485 124.618 35.7611C124.597 36.4329 124.471 37.0714 124.243 37.679C124.055 38.2031 123.751 38.7273 123.334 39.2514C122.916 39.7756 122.311 40.2044 121.515 40.5403C122.308 40.9168 122.914 41.3837 123.334 41.9388C123.751 42.494 124.055 43.0348 124.243 43.5589C124.473 44.1665 124.599 44.7859 124.618 45.4149L124.62 45.4101ZM119.324 36.259C119.324 35.7563 119.229 35.3584 119.042 35.063C118.854 34.77 118.629 34.5555 118.368 34.4174C118.107 34.2816 117.841 34.1934 117.568 34.1505C117.297 34.1076 117.076 34.0886 116.91 34.0886H102.435V38.4604H116.91C117.036 38.4604 117.228 38.439 117.489 38.3985C117.751 38.358 118.016 38.2579 118.289 38.1007C118.56 37.9434 118.802 37.7195 119.011 37.424C119.22 37.131 119.324 36.7427 119.324 36.2614V36.259ZM119.324 44.7502C119.324 44.2475 119.229 43.8496 119.042 43.5542C118.854 43.2611 118.629 43.0395 118.368 42.8942C118.107 42.7489 117.841 42.6536 117.568 42.6107C117.297 42.5678 117.076 42.5488 116.91 42.5488H102.435V46.9206H116.91C117.036 46.9206 117.228 46.8992 117.489 46.8587C117.751 46.8182 118.016 46.7229 118.289 46.5752C118.56 46.4274 118.802 46.2083 119.011 45.9152C119.22 45.6222 119.324 45.2338 119.324 44.7526V44.7502ZM130.823 51.5117V29.4999H136.337V46.7658H155.795V51.514H130.823V51.5117ZM162 51.5117V29.4999H167.514V51.514H162V51.5117ZM203.925 40.5046C203.925 42.0985 203.581 43.6018 202.89 45.017C202.202 46.4322 201.203 47.6735 199.897 48.7432C198.592 49.8129 196.994 50.6611 195.102 51.2901C193.213 51.9191 191.064 52.2335 188.662 52.2335C186.26 52.2335 184.114 51.9191 182.222 51.2901C180.333 50.6611 178.733 49.8129 177.427 48.7432C176.121 47.6735 175.124 46.4322 174.434 45.017C173.743 43.6018 173.399 42.0985 173.399 40.5046C173.399 38.9107 173.743 37.4074 174.434 35.9922C175.122 34.577 176.121 33.3357 177.427 32.266C178.733 31.1962 180.33 30.3481 182.222 29.7191C184.112 29.0901 186.26 28.7756 188.662 28.7756C190.271 28.7756 191.753 28.9281 193.111 29.2307C194.468 29.5356 195.705 29.9478 196.823 30.472C197.941 30.9961 198.926 31.6203 199.783 32.3422C200.64 33.0665 201.359 33.8575 201.946 34.7175L197.089 37.2025C196.42 36.1542 195.387 35.2798 193.986 34.577C192.586 33.8741 190.81 33.5239 188.66 33.5239C187.072 33.5239 185.678 33.7121 184.477 34.091C183.276 34.4674 182.267 34.9772 181.453 35.6157C180.639 36.2566 180.026 36.9952 179.62 37.8338C179.212 38.6725 179.01 39.5635 179.01 40.507C179.01 41.4504 179.214 42.3415 179.62 43.1801C180.029 44.0188 180.639 44.7573 181.453 45.3982C182.267 46.0391 183.276 46.5466 184.477 46.923C185.678 47.2994 187.072 47.49 188.66 47.49C191.019 47.49 192.959 47.0874 194.473 46.2797C195.988 45.4721 197.058 44.45 197.685 43.2135H186.5V38.9369H203.795C203.835 39.1895 203.868 39.4444 203.89 39.7065C203.911 39.9685 203.921 40.2354 203.921 40.5094L203.925 40.5046ZM231.186 51.5117V42.4535H215.331V51.5117H209.817V29.4999H215.331V37.7076H231.186V29.4999H236.7V51.514H231.186V51.5117ZM258.102 34.2458V51.5117H252.618V34.2458H242.748V29.4975H267.972V34.2458H258.102ZM46.9459 83.5346V61.5205H73.3612V66.2687H52.4626V70.2308H70.8545V74.5074H52.4626V78.7839H74.1778V83.5322H46.9483L46.9459 83.5346ZM101.749 83.5346L85.8947 68.1557V83.5346H80.3804V61.5205H85.8947L101.749 76.8994V61.5205H107.263V83.5346H101.749ZM143.672 72.5275C143.672 74.1214 143.328 75.6247 142.637 77.0399C141.949 78.4551 140.949 79.6964 139.644 80.7661C138.338 81.8359 136.741 82.684 134.849 83.313C132.957 83.942 130.811 84.2565 128.409 84.2565C126.007 84.2565 123.861 83.942 121.969 83.313C120.077 82.684 118.479 81.8359 117.174 80.7661C115.868 79.6964 114.871 78.4551 114.18 77.0399C113.492 75.6247 113.145 74.1214 113.145 72.5275C113.145 70.9336 113.49 69.4303 114.18 68.0151C114.869 66.5999 115.868 65.3586 117.174 64.2889C118.479 63.2192 120.077 62.371 121.969 61.742C123.858 61.1131 126.004 60.7986 128.409 60.7986C130.018 60.7986 131.499 60.951 132.857 61.2536C134.215 61.5586 135.452 61.9731 136.57 62.4949C137.688 63.019 138.673 63.6432 139.53 64.3651C140.387 65.0894 141.106 65.8804 141.692 66.7405L136.836 69.2254C136.166 68.1771 135.134 67.3027 133.733 66.5999C132.333 65.8971 130.557 65.5469 128.406 65.5469C126.818 65.5469 125.425 65.7351 124.224 66.1139C123.023 66.4903 122.014 67.0002 121.2 67.6387C120.385 68.2796 119.773 69.0181 119.367 69.8568C118.959 70.6954 118.757 71.5864 118.757 72.5299C118.757 73.4734 118.961 74.3644 119.367 75.203C119.775 76.0417 120.385 76.7803 121.2 77.4211C122.014 78.0596 123.023 78.5695 124.224 78.9459C125.425 79.3224 126.818 79.513 128.406 79.513C130.766 79.513 132.703 79.1103 134.22 78.3027C135.734 77.495 136.805 76.4729 137.431 75.2364H126.246V70.9599H143.542C143.582 71.2124 143.615 71.4673 143.636 71.7294C143.658 71.9915 143.667 72.2583 143.667 72.5323L143.672 72.5275ZM149.564 83.5346V61.5205H155.078V83.5346H149.564ZM183.435 83.5346L167.581 68.1557V83.5346H162.066V61.5205H167.581L183.435 76.8994V61.5205H188.949V83.5346H183.435ZM195.938 83.5346V61.5205H222.353V66.2687H201.454V70.2308H219.846V74.5074H201.454V78.7839H223.169V83.5322H195.94L195.938 83.5346ZM254.876 76.4276C254.876 77.5188 254.584 78.5457 253.998 79.5106C253.414 80.4755 252.514 81.3189 251.303 82.0432C250.093 82.7674 248.578 83.3321 246.76 83.7419C244.942 84.1516 242.791 84.3542 240.306 84.3542C239.031 84.3542 237.725 84.2493 236.389 84.0397C235.24 83.8705 233.977 83.6108 232.598 83.2535C231.219 82.8961 229.882 82.3839 228.586 81.712L230.497 77.3092C231.646 77.8953 232.8 78.3527 233.961 78.6767C235.119 79.0031 236.171 79.239 237.111 79.3843C238.217 79.5535 239.283 79.6464 240.306 79.6678C243.439 79.6678 245.772 79.3843 247.308 78.8197C248.844 78.255 249.611 77.5093 249.611 76.5873C249.611 76.0012 249.371 75.57 248.889 75.2983C248.407 75.0267 247.667 74.8695 246.665 74.8266C246.435 74.8052 246.003 74.779 245.364 74.748C244.726 74.717 243.949 74.6813 243.031 74.6384C242.112 74.5979 241.089 74.555 239.959 74.5121C238.832 74.4692 237.661 74.4168 236.451 74.3549C235.24 74.2929 234.127 74.1238 233.113 73.8522C232.1 73.5806 231.224 73.1875 230.481 72.6729C229.74 72.1582 229.158 71.5316 228.741 70.7859C228.323 70.0426 228.114 69.1658 228.114 68.1604C228.114 67.155 228.444 66.2044 229.102 65.3134C229.759 64.4223 230.699 63.6456 231.922 62.9857C233.144 62.3257 234.625 61.8064 236.37 61.4299C238.115 61.0535 240.061 60.8629 242.214 60.8629C243.489 60.8629 244.783 60.9582 246.1 61.1464C247.228 61.3156 248.486 61.5562 249.877 61.8707C251.265 62.1852 252.618 62.6474 253.933 63.2549L252.272 67.5958C251.624 67.3242 250.893 67.0621 250.078 66.8096C249.264 66.557 248.412 66.3378 247.524 66.1496C246.637 65.9614 245.739 65.8137 244.83 65.7089C243.921 65.604 243.05 65.5516 242.214 65.5516C240.961 65.5516 239.795 65.6088 238.72 65.7255C237.645 65.8399 236.709 66.0138 235.917 66.2449C235.121 66.476 234.502 66.7595 234.053 67.0931C233.605 67.429 233.379 67.8054 233.379 68.2248C233.379 68.7703 233.609 69.1778 234.067 69.4517C234.526 69.7257 235.204 69.8806 236.104 69.9235C237.106 69.9664 238.516 70.0283 240.334 70.1117C242.152 70.1951 244.303 70.2904 246.788 70.3952C248.042 70.4571 249.165 70.6263 250.157 70.8979C251.149 71.1695 251.994 71.5578 252.694 72.0606C253.395 72.5633 253.931 73.1827 254.309 73.9165C254.684 74.6503 254.873 75.4889 254.873 76.4324L254.876 76.4276Z" fill="url(#paint8_linear_8_354)"/>
<path d="M41.8044 118.583C41.9064 118.929 41.8637 119.303 41.6833 119.615C41.2893 120.299 40.7789 120.932 40.1641 121.495C39.5612 122.047 38.8514 122.536 38.0562 122.941C37.2681 123.343 36.3827 123.658 35.4237 123.877C34.4718 124.094 33.425 124.206 32.3117 124.206C30.726 124.206 29.278 123.991 28.0081 123.57C26.7191 123.141 25.6034 122.545 24.6943 121.802C23.7614 121.037 23.035 120.132 22.5365 119.11C22.0333 118.078 21.7793 116.965 21.7793 115.805C21.7793 114.645 22.0333 113.532 22.5365 112.501C23.035 111.476 23.7614 110.571 24.6943 109.808C25.6034 109.065 26.7167 108.47 28.0081 108.041C29.278 107.619 30.7284 107.405 32.3117 107.405C33.3846 107.405 34.3982 107.507 35.3264 107.71C36.2664 107.914 37.1328 108.212 37.9067 108.593C38.6876 108.977 39.3855 109.437 39.9861 109.959C40.5961 110.49 41.1112 111.081 41.5195 111.714C41.7189 112.027 41.7783 112.408 41.6809 112.768C41.5836 113.125 41.3415 113.425 41.0115 113.592L38.0182 115.112C37.4082 115.422 36.6628 115.207 36.3091 114.619C36.1904 114.423 36.0219 114.228 35.8082 114.042C35.5827 113.847 35.3003 113.673 34.9679 113.52C34.6071 113.358 34.187 113.223 33.717 113.123C33.247 113.022 32.7295 112.97 32.1811 112.97C31.3835 112.97 30.6904 113.061 30.1207 113.242C29.5819 113.411 29.1427 113.635 28.8151 113.906C28.5042 114.164 28.2787 114.447 28.1267 114.771C27.9748 115.1 27.8989 115.436 27.8989 115.803C27.8989 116.17 27.9724 116.489 28.1267 116.815C28.2787 117.139 28.5042 117.423 28.8151 117.68C29.1475 117.954 29.5914 118.183 30.1326 118.359C30.6999 118.545 31.3907 118.638 32.1835 118.638C32.7651 118.638 33.3039 118.581 33.7882 118.471C34.2653 118.362 34.6902 118.214 35.0486 118.035C35.3905 117.864 35.6848 117.666 35.9222 117.447C36.1287 117.256 36.2782 117.063 36.3708 116.87C36.5227 116.553 36.7957 116.313 37.1257 116.198C37.4556 116.084 37.8188 116.11 38.1322 116.267L41.1445 117.787C41.4649 117.949 41.707 118.238 41.8091 118.583H41.8044ZM65.5586 121.804C65.7913 122.209 65.7889 122.71 65.5586 123.115C65.326 123.52 64.894 123.767 64.4287 123.767H60.8847C60.4194 123.767 59.9874 123.517 59.7548 123.112L58.5964 121.104H50.7606L49.6022 123.112C49.3696 123.517 48.9375 123.767 48.4723 123.767H44.9282C44.463 123.767 44.031 123.517 43.7983 123.115C43.5657 122.71 43.5633 122.212 43.7983 121.804L51.4157 108.493C51.6484 108.086 52.0804 107.836 52.548 107.836H56.8113C57.2789 107.836 57.711 108.086 57.9436 108.493L65.561 121.804H65.5586ZM55.4606 115.612L54.6868 114.264L53.9129 115.612H55.4606ZM87.3023 114.554C87.148 114.983 86.8964 115.426 86.557 115.853C86.5617 115.86 86.5688 115.867 86.5736 115.877C86.9059 116.317 87.1528 116.763 87.3094 117.201C87.4898 117.683 87.5967 118.2 87.6133 118.724C87.6133 118.738 87.6133 118.752 87.6133 118.767C87.6133 119.627 87.4542 120.387 87.1385 121.03C86.8228 121.671 86.3884 122.209 85.8448 122.629C85.3226 123.031 84.7078 123.329 84.0194 123.513C83.3904 123.679 82.7067 123.765 81.9898 123.765H69.5608C68.8392 123.765 68.2552 123.179 68.2552 122.455V109.144C68.2552 108.419 68.8392 107.833 69.5608 107.833H81.9898C82.7352 107.833 83.4354 107.922 84.0764 108.098C84.779 108.291 85.3962 108.598 85.9113 109.015C86.4501 109.446 86.875 110.001 87.1741 110.666C87.4661 111.312 87.6133 112.074 87.6133 112.93C87.6133 112.944 87.6133 112.958 87.6133 112.97C87.5967 113.518 87.4922 114.052 87.3023 114.554ZM81.7453 113.242C81.6789 113.234 81.6504 113.232 81.648 113.232H74.2015V113.254H81.6504C81.6646 113.254 81.7002 113.246 81.7477 113.239L81.7453 113.242ZM74.2015 118.371H81.6504C81.667 118.371 81.7002 118.364 81.7477 118.357C81.6812 118.35 81.6528 118.347 81.6504 118.347H74.2039V118.369L74.2015 118.371ZM122.781 117.787L119.768 116.267C119.455 116.11 119.092 116.084 118.762 116.198C118.429 116.31 118.159 116.553 118.007 116.87C117.914 117.061 117.765 117.256 117.558 117.447C117.321 117.666 117.029 117.864 116.685 118.035C116.326 118.216 115.901 118.362 115.424 118.471C114.94 118.581 114.401 118.638 113.82 118.638C113.027 118.638 112.336 118.545 111.769 118.359C111.227 118.183 110.784 117.954 110.451 117.68C110.14 117.423 109.915 117.139 109.763 116.815C109.611 116.489 109.535 116.158 109.535 115.803C109.535 115.448 109.609 115.098 109.763 114.771C109.915 114.447 110.14 114.164 110.451 113.906C110.781 113.635 111.22 113.411 111.759 113.242C112.329 113.061 113.024 112.97 113.82 112.97C114.368 112.97 114.885 113.02 115.355 113.123C115.825 113.223 116.248 113.358 116.606 113.52C116.939 113.67 117.221 113.847 117.447 114.042C117.663 114.228 117.831 114.421 117.948 114.619C118.299 115.207 119.044 115.424 119.657 115.114L122.65 113.594C122.98 113.427 123.222 113.127 123.319 112.77C123.417 112.413 123.357 112.029 123.158 111.717C122.752 111.083 122.237 110.492 121.625 109.961C121.024 109.439 120.326 108.979 119.545 108.596C118.771 108.215 117.905 107.919 116.965 107.712C116.037 107.509 115.023 107.407 113.95 107.407C112.365 107.407 110.917 107.621 109.647 108.043C108.358 108.472 107.242 109.068 106.333 109.811C105.4 110.573 104.674 111.481 104.175 112.503C103.672 113.535 103.418 114.647 103.418 115.808C103.418 116.968 103.672 118.08 104.175 119.112C104.674 120.134 105.4 121.042 106.333 121.804C107.242 122.55 108.358 123.143 109.647 123.572C110.917 123.994 112.365 124.208 113.95 124.208C115.066 124.208 116.113 124.099 117.062 123.879C118.021 123.66 118.907 123.346 119.695 122.943C120.49 122.536 121.2 122.05 121.803 121.497C122.415 120.935 122.928 120.301 123.322 119.617C123.502 119.305 123.545 118.931 123.443 118.586C123.341 118.24 123.099 117.952 122.778 117.79L122.781 117.787ZM145.483 112.51C145.97 113.539 146.214 114.647 146.214 115.8C146.214 116.954 145.968 118.061 145.483 119.091C144.999 120.113 144.296 121.02 143.392 121.785C142.509 122.533 141.429 123.131 140.183 123.563C138.951 123.989 137.553 124.206 136.024 124.206C134.495 124.206 133.097 123.989 131.865 123.563C130.619 123.131 129.539 122.533 128.656 121.785C127.751 121.02 127.049 120.113 126.564 119.091C126.078 118.064 125.833 116.956 125.833 115.8C125.833 114.645 126.08 113.539 126.564 112.51C127.046 111.488 127.751 110.58 128.656 109.816C129.539 109.068 130.619 108.47 131.865 108.038C133.097 107.612 134.495 107.395 136.024 107.395C137.553 107.395 138.951 107.612 140.183 108.036C141.429 108.467 142.509 109.065 143.394 109.813C144.299 110.578 145.001 111.483 145.486 112.508L145.483 112.51ZM137.966 118.476C138.474 118.304 138.894 118.076 139.209 117.799C139.513 117.535 139.729 117.242 139.874 116.906C140.026 116.556 140.1 116.194 140.1 115.8C140.1 115.407 140.026 115.045 139.874 114.695C139.729 114.361 139.513 114.068 139.209 113.802C138.894 113.525 138.476 113.296 137.966 113.125C137.427 112.944 136.774 112.851 136.024 112.851C135.274 112.851 134.619 112.944 134.082 113.125C133.574 113.296 133.154 113.525 132.838 113.802C132.534 114.066 132.318 114.359 132.174 114.693C132.022 115.043 131.948 115.405 131.948 115.798C131.948 116.191 132.022 116.553 132.174 116.904C132.318 117.239 132.534 117.53 132.838 117.797C133.154 118.076 133.574 118.302 134.082 118.474C134.621 118.655 135.274 118.748 136.024 118.748C136.774 118.748 137.427 118.655 137.966 118.474V118.476ZM166.868 107.833H163.533C162.812 107.833 162.228 108.419 162.228 109.144V115.355L154.855 108.203C154.61 107.967 154.285 107.836 153.948 107.836H150.613C149.891 107.836 149.307 108.422 149.307 109.146V122.457C149.307 123.181 149.891 123.767 150.613 123.767H153.948C154.67 123.767 155.254 123.181 155.254 122.457V116.246L162.627 123.398C162.871 123.634 163.196 123.765 163.533 123.765H166.868C167.59 123.765 168.174 123.179 168.174 122.455V109.144C168.174 108.419 167.59 107.833 166.868 107.833ZM187.917 107.833H172.665C171.944 107.833 171.36 108.419 171.36 109.144V112.015C171.36 112.739 171.944 113.325 172.665 113.325H177.327V122.455C177.327 123.179 177.911 123.765 178.633 123.765H181.949C182.671 123.765 183.255 123.179 183.255 122.455V113.325H187.917C188.638 113.325 189.222 112.739 189.222 112.015V109.144C189.222 108.419 188.638 107.833 187.917 107.833ZM209.076 118.08L210.869 121.897C211.059 122.302 211.03 122.779 210.79 123.158C210.551 123.536 210.135 123.765 209.689 123.765H206.126C205.62 123.765 205.157 123.472 204.944 123.01L203.173 119.219H198.354V122.455C198.354 123.179 197.77 123.765 197.049 123.765H193.713C192.992 123.765 192.408 123.179 192.408 122.455V109.144C192.408 108.419 192.992 107.833 193.713 107.833H205.63C206.095 107.833 206.62 107.91 207.23 108.064C207.882 108.231 208.509 108.524 209.093 108.941C209.705 109.377 210.223 109.968 210.634 110.7C211.059 111.46 211.275 112.408 211.275 113.518C211.275 114.242 211.175 114.905 210.975 115.484C210.778 116.06 210.51 116.572 210.18 117.006C209.857 117.43 209.485 117.79 209.074 118.08H209.076ZM205.326 113.592C205.326 113.578 205.331 113.551 205.331 113.518C205.331 113.447 205.326 113.401 205.321 113.382C205.286 113.358 205.267 113.354 205.267 113.354C205.164 113.33 205.122 113.327 205.119 113.327H198.356V113.73H205.077C205.1 113.725 205.129 113.718 205.16 113.709C205.162 113.709 205.2 113.697 205.276 113.647C205.281 113.644 205.3 113.63 205.326 113.594V113.592ZM233.64 112.51C234.127 113.539 234.371 114.647 234.371 115.8C234.371 116.954 234.124 118.061 233.64 119.091C233.156 120.113 232.453 121.02 231.549 121.785C230.666 122.533 229.586 123.131 228.34 123.563C227.108 123.989 225.709 124.206 224.181 124.206C222.652 124.206 221.254 123.989 220.022 123.563C218.776 123.131 217.696 122.533 216.813 121.785C215.908 121.02 215.205 120.113 214.721 119.091C214.235 118.064 213.99 116.956 213.99 115.8C213.99 114.645 214.237 113.539 214.721 112.51C215.203 111.488 215.908 110.58 216.813 109.816C217.696 109.068 218.776 108.47 220.022 108.038C221.254 107.612 222.652 107.395 224.181 107.395C225.709 107.395 227.108 107.612 228.34 108.036C229.586 108.467 230.666 109.065 231.551 109.813C232.456 110.578 233.158 111.483 233.643 112.508L233.64 112.51ZM226.122 118.476C226.63 118.304 227.051 118.076 227.366 117.799C227.67 117.535 227.886 117.242 228.031 116.906C228.183 116.556 228.256 116.194 228.256 115.8C228.256 115.407 228.183 115.045 228.031 114.695C227.886 114.361 227.67 114.068 227.366 113.802C227.051 113.525 226.633 113.296 226.122 113.125C225.584 112.944 224.931 112.851 224.181 112.851C223.431 112.851 222.775 112.944 222.239 113.125C221.731 113.296 221.311 113.525 220.995 113.802C220.691 114.066 220.475 114.359 220.33 114.693C220.179 115.043 220.105 115.405 220.105 115.798C220.105 116.191 220.179 116.553 220.33 116.904C220.475 117.239 220.691 117.53 220.995 117.797C221.311 118.076 221.731 118.302 222.239 118.474C222.778 118.655 223.431 118.748 224.181 118.748C224.931 118.748 225.584 118.655 226.122 118.474V118.476ZM253.869 118.273H243.408V109.144C243.408 108.419 242.824 107.833 242.103 107.833H238.767C238.046 107.833 237.462 108.419 237.462 109.144V122.455C237.462 123.179 238.046 123.765 238.767 123.765H253.867C254.589 123.765 255.173 123.179 255.173 122.455V119.584C255.173 118.86 254.589 118.273 253.867 118.273H253.869ZM276.489 118.157C276.489 119.057 276.247 119.913 275.767 120.701C275.302 121.466 274.604 122.131 273.69 122.676C272.843 123.181 271.789 123.579 270.562 123.856C269.375 124.122 267.965 124.258 266.374 124.258C265.541 124.258 264.677 124.189 263.804 124.053C263.08 123.946 262.261 123.777 261.387 123.553C260.464 123.315 259.555 122.967 258.688 122.517C258.078 122.2 257.815 121.461 258.09 120.83L259.246 118.169C259.391 117.837 259.664 117.58 260.003 117.459C260.131 117.413 260.264 117.387 260.4 117.382C260.15 117.258 259.913 117.118 259.692 116.965C259.082 116.544 258.596 116.012 258.244 115.388C257.881 114.743 257.698 113.992 257.698 113.158C257.698 112.265 257.985 111.424 258.553 110.657C259.063 109.963 259.782 109.365 260.689 108.877C261.532 108.422 262.553 108.062 263.723 107.81C264.862 107.562 266.144 107.438 267.53 107.438C268.359 107.438 269.211 107.5 270.063 107.621C270.782 107.729 271.582 107.881 272.449 108.079C273.375 108.288 274.286 108.598 275.16 109.003C275.784 109.291 276.081 110.018 275.834 110.664L274.83 113.287C274.704 113.618 274.448 113.883 274.125 114.023C274.084 114.04 274.044 114.054 274.004 114.068C274.224 114.185 274.433 114.314 274.628 114.454C275.219 114.881 275.682 115.414 276.005 116.043C276.328 116.672 276.491 117.385 276.491 118.164L276.489 118.157ZM266.453 113.025C267.549 113.075 268.85 113.132 270.35 113.196H270.355C269.899 113.103 269.432 113.027 268.959 112.975C268.463 112.918 267.981 112.889 267.528 112.889C266.821 112.889 266.156 112.922 265.555 112.987C265.833 112.999 266.132 113.013 266.453 113.027V113.025ZM261.909 117.918C262.237 118.049 262.564 118.161 262.89 118.254C263.538 118.435 264.129 118.569 264.641 118.65C265.242 118.74 265.831 118.793 266.386 118.805C268.174 118.805 269.225 118.64 269.838 118.474C269.712 118.466 269.555 118.457 269.368 118.447C268.983 118.428 268.515 118.407 267.96 118.381C267.407 118.357 266.792 118.331 266.116 118.304C265.446 118.281 264.725 118.247 263.974 118.209C263.239 118.171 262.545 118.073 261.907 117.918H261.909Z" fill="url(#paint9_linear_8_354)"/>
<g style="mix-blend-mode:multiply" opacity="0.35">
<path d="M41.8044 118.583C41.9064 118.929 41.8637 119.303 41.6833 119.615C41.2893 120.299 40.7789 120.932 40.1641 121.495C39.5612 122.047 38.8514 122.536 38.0562 122.941C37.2681 123.343 36.3827 123.658 35.4237 123.877C34.4718 124.094 33.425 124.206 32.3117 124.206C30.726 124.206 29.278 123.991 28.0081 123.57C26.7191 123.141 25.6034 122.545 24.6943 121.802C23.7614 121.037 23.035 120.132 22.5365 119.11C22.0333 118.078 21.7793 116.965 21.7793 115.805C21.7793 114.645 22.0333 113.532 22.5365 112.501C23.035 111.476 23.7614 110.571 24.6943 109.808C25.6034 109.065 26.7167 108.47 28.0081 108.041C29.278 107.619 30.7284 107.405 32.3117 107.405C33.3846 107.405 34.3982 107.507 35.3264 107.71C36.2664 107.914 37.1328 108.212 37.9067 108.593C38.6876 108.977 39.3855 109.437 39.9861 109.959C40.5961 110.49 41.1112 111.081 41.5195 111.714C41.7189 112.027 41.7783 112.408 41.6809 112.768C41.5836 113.125 41.3415 113.425 41.0115 113.592L38.0182 115.112C37.4082 115.422 36.6628 115.207 36.3091 114.619C36.1904 114.423 36.0219 114.228 35.8082 114.042C35.5827 113.847 35.3003 113.673 34.9679 113.52C34.6071 113.358 34.187 113.223 33.717 113.123C33.247 113.022 32.7295 112.97 32.1811 112.97C31.3835 112.97 30.6904 113.061 30.1207 113.242C29.5819 113.411 29.1427 113.635 28.8151 113.906C28.5042 114.164 28.2787 114.447 28.1267 114.771C27.9748 115.1 27.8989 115.436 27.8989 115.803C27.8989 116.17 27.9724 116.489 28.1267 116.815C28.2787 117.139 28.5042 117.423 28.8151 117.68C29.1475 117.954 29.5914 118.183 30.1326 118.359C30.6999 118.545 31.3907 118.638 32.1835 118.638C32.7651 118.638 33.3039 118.581 33.7882 118.471C34.2653 118.362 34.6902 118.214 35.0486 118.035C35.3905 117.864 35.6848 117.666 35.9222 117.447C36.1287 117.256 36.2782 117.063 36.3708 116.87C36.5227 116.553 36.7957 116.313 37.1257 116.198C37.4556 116.084 37.8188 116.11 38.1322 116.267L41.1445 117.787C41.4649 117.949 41.707 118.238 41.8091 118.583H41.8044ZM65.5586 121.804C65.7913 122.209 65.7889 122.71 65.5586 123.115C65.326 123.52 64.894 123.767 64.4287 123.767H60.8847C60.4194 123.767 59.9874 123.517 59.7548 123.112L58.5964 121.104H50.7606L49.6022 123.112C49.3696 123.517 48.9375 123.767 48.4723 123.767H44.9282C44.463 123.767 44.031 123.517 43.7983 123.115C43.5657 122.71 43.5633 122.212 43.7983 121.804L51.4157 108.493C51.6484 108.086 52.0804 107.836 52.548 107.836H56.8113C57.2789 107.836 57.711 108.086 57.9436 108.493L65.561 121.804H65.5586ZM55.4606 115.612L54.6868 114.264L53.9129 115.612H55.4606ZM87.3023 114.554C87.148 114.983 86.8964 115.426 86.557 115.853C86.5617 115.86 86.5688 115.867 86.5736 115.877C86.9059 116.317 87.1528 116.763 87.3094 117.201C87.4898 117.683 87.5967 118.2 87.6133 118.724C87.6133 118.738 87.6133 118.752 87.6133 118.767C87.6133 119.627 87.4542 120.387 87.1385 121.03C86.8228 121.671 86.3884 122.209 85.8448 122.629C85.3226 123.031 84.7078 123.329 84.0194 123.513C83.3904 123.679 82.7067 123.765 81.9898 123.765H69.5608C68.8392 123.765 68.2552 123.179 68.2552 122.455V109.144C68.2552 108.419 68.8392 107.833 69.5608 107.833H81.9898C82.7352 107.833 83.4354 107.922 84.0764 108.098C84.779 108.291 85.3962 108.598 85.9113 109.015C86.4501 109.446 86.875 110.001 87.1741 110.666C87.4661 111.312 87.6133 112.074 87.6133 112.93C87.6133 112.944 87.6133 112.958 87.6133 112.97C87.5967 113.518 87.4922 114.052 87.3023 114.554ZM81.7453 113.242C81.6789 113.234 81.6504 113.232 81.648 113.232H74.2015V113.254H81.6504C81.6646 113.254 81.7002 113.246 81.7477 113.239L81.7453 113.242ZM74.2015 118.371H81.6504C81.667 118.371 81.7002 118.364 81.7477 118.357C81.6812 118.35 81.6528 118.347 81.6504 118.347H74.2039V118.369L74.2015 118.371ZM122.781 117.787L119.768 116.267C119.455 116.11 119.092 116.084 118.762 116.198C118.429 116.31 118.159 116.553 118.007 116.87C117.914 117.061 117.765 117.256 117.558 117.447C117.321 117.666 117.029 117.864 116.685 118.035C116.326 118.216 115.901 118.362 115.424 118.471C114.94 118.581 114.401 118.638 113.82 118.638C113.027 118.638 112.336 118.545 111.769 118.359C111.227 118.183 110.784 117.954 110.451 117.68C110.14 117.423 109.915 117.139 109.763 116.815C109.611 116.489 109.535 116.158 109.535 115.803C109.535 115.448 109.609 115.098 109.763 114.771C109.915 114.447 110.14 114.164 110.451 113.906C110.781 113.635 111.22 113.411 111.759 113.242C112.329 113.061 113.024 112.97 113.82 112.97C114.368 112.97 114.885 113.02 115.355 113.123C115.825 113.223 116.248 113.358 116.606 113.52C116.939 113.67 117.221 113.847 117.447 114.042C117.663 114.228 117.831 114.421 117.948 114.619C118.299 115.207 119.044 115.424 119.657 115.114L122.65 113.594C122.98 113.427 123.222 113.127 123.319 112.77C123.417 112.413 123.357 112.029 123.158 111.717C122.752 111.083 122.237 110.492 121.625 109.961C121.024 109.439 120.326 108.979 119.545 108.596C118.771 108.215 117.905 107.919 116.965 107.712C116.037 107.509 115.023 107.407 113.95 107.407C112.365 107.407 110.917 107.621 109.647 108.043C108.358 108.472 107.242 109.068 106.333 109.811C105.4 110.573 104.674 111.481 104.175 112.503C103.672 113.535 103.418 114.647 103.418 115.808C103.418 116.968 103.672 118.08 104.175 119.112C104.674 120.134 105.4 121.042 106.333 121.804C107.242 122.55 108.358 123.143 109.647 123.572C110.917 123.994 112.365 124.208 113.95 124.208C115.066 124.208 116.113 124.099 117.062 123.879C118.021 123.66 118.907 123.346 119.695 122.943C120.49 122.536 121.2 122.05 121.803 121.497C122.415 120.935 122.928 120.301 123.322 119.617C123.502 119.305 123.545 118.931 123.443 118.586C123.341 118.24 123.099 117.952 122.778 117.79L122.781 117.787ZM145.483 112.51C145.97 113.539 146.214 114.647 146.214 115.8C146.214 116.954 145.968 118.061 145.483 119.091C144.999 120.113 144.296 121.02 143.392 121.785C142.509 122.533 141.429 123.131 140.183 123.563C138.951 123.989 137.553 124.206 136.024 124.206C134.495 124.206 133.097 123.989 131.865 123.563C130.619 123.131 129.539 122.533 128.656 121.785C127.751 121.02 127.049 120.113 126.564 119.091C126.078 118.064 125.833 116.956 125.833 115.8C125.833 114.645 126.08 113.539 126.564 112.51C127.046 111.488 127.751 110.58 128.656 109.816C129.539 109.068 130.619 108.47 131.865 108.038C133.097 107.612 134.495 107.395 136.024 107.395C137.553 107.395 138.951 107.612 140.183 108.036C141.429 108.467 142.509 109.065 143.394 109.813C144.299 110.578 145.001 111.483 145.486 112.508L145.483 112.51ZM137.966 118.476C138.474 118.304 138.894 118.076 139.209 117.799C139.513 117.535 139.729 117.242 139.874 116.906C140.026 116.556 140.1 116.194 140.1 115.8C140.1 115.407 140.026 115.045 139.874 114.695C139.729 114.361 139.513 114.068 139.209 113.802C138.894 113.525 138.476 113.296 137.966 113.125C137.427 112.944 136.774 112.851 136.024 112.851C135.274 112.851 134.619 112.944 134.082 113.125C133.574 113.296 133.154 113.525 132.838 113.802C132.534 114.066 132.318 114.359 132.174 114.693C132.022 115.043 131.948 115.405 131.948 115.798C131.948 116.191 132.022 116.553 132.174 116.904C132.318 117.239 132.534 117.53 132.838 117.797C133.154 118.076 133.574 118.302 134.082 118.474C134.621 118.655 135.274 118.748 136.024 118.748C136.774 118.748 137.427 118.655 137.966 118.474V118.476ZM166.868 107.833H163.533C162.812 107.833 162.228 108.419 162.228 109.144V115.355L154.855 108.203C154.61 107.967 154.285 107.836 153.948 107.836H150.613C149.891 107.836 149.307 108.422 149.307 109.146V122.457C149.307 123.181 149.891 123.767 150.613 123.767H153.948C154.67 123.767 155.254 123.181 155.254 122.457V116.246L162.627 123.398C162.871 123.634 163.196 123.765 163.533 123.765H166.868C167.59 123.765 168.174 123.179 168.174 122.455V109.144C168.174 108.419 167.59 107.833 166.868 107.833ZM187.917 107.833H172.665C171.944 107.833 171.36 108.419 171.36 109.144V112.015C171.36 112.739 171.944 113.325 172.665 113.325H177.327V122.455C177.327 123.179 177.911 123.765 178.633 123.765H181.949C182.671 123.765 183.255 123.179 183.255 122.455V113.325H187.917C188.638 113.325 189.222 112.739 189.222 112.015V109.144C189.222 108.419 188.638 107.833 187.917 107.833ZM209.076 118.08L210.869 121.897C211.059 122.302 211.03 122.779 210.79 123.158C210.551 123.536 210.135 123.765 209.689 123.765H206.126C205.62 123.765 205.157 123.472 204.944 123.01L203.173 119.219H198.354V122.455C198.354 123.179 197.77 123.765 197.049 123.765H193.713C192.992 123.765 192.408 123.179 192.408 122.455V109.144C192.408 108.419 192.992 107.833 193.713 107.833H205.63C206.095 107.833 206.62 107.91 207.23 108.064C207.882 108.231 208.509 108.524 209.093 108.941C209.705 109.377 210.223 109.968 210.634 110.7C211.059 111.46 211.275 112.408 211.275 113.518C211.275 114.242 211.175 114.905 210.975 115.484C210.778 116.06 210.51 116.572 210.18 117.006C209.857 117.43 209.485 117.79 209.074 118.08H209.076ZM205.326 113.592C205.326 113.578 205.331 113.551 205.331 113.518C205.331 113.447 205.326 113.401 205.321 113.382C205.286 113.358 205.267 113.354 205.267 113.354C205.164 113.33 205.122 113.327 205.119 113.327H198.356V113.73H205.077C205.1 113.725 205.129 113.718 205.16 113.709C205.162 113.709 205.2 113.697 205.276 113.647C205.281 113.644 205.3 113.63 205.326 113.594V113.592ZM233.64 112.51C234.127 113.539 234.371 114.647 234.371 115.8C234.371 116.954 234.124 118.061 233.64 119.091C233.156 120.113 232.453 121.02 231.549 121.785C230.666 122.533 229.586 123.131 228.34 123.563C227.108 123.989 225.709 124.206 224.181 124.206C222.652 124.206 221.254 123.989 220.022 123.563C218.776 123.131 217.696 122.533 216.813 121.785C215.908 121.02 215.205 120.113 214.721 119.091C214.235 118.064 213.99 116.956 213.99 115.8C213.99 114.645 214.237 113.539 214.721 112.51C215.203 111.488 215.908 110.58 216.813 109.816C217.696 109.068 218.776 108.47 220.022 108.038C221.254 107.612 222.652 107.395 224.181 107.395C225.709 107.395 227.108 107.612 228.34 108.036C229.586 108.467 230.666 109.065 231.551 109.813C232.456 110.578 233.158 111.483 233.643 112.508L233.64 112.51ZM226.122 118.476C226.63 118.304 227.051 118.076 227.366 117.799C227.67 117.535 227.886 117.242 228.031 116.906C228.183 116.556 228.256 116.194 228.256 115.8C228.256 115.407 228.183 115.045 228.031 114.695C227.886 114.361 227.67 114.068 227.366 113.802C227.051 113.525 226.633 113.296 226.122 113.125C225.584 112.944 224.931 112.851 224.181 112.851C223.431 112.851 222.775 112.944 222.239 113.125C221.731 113.296 221.311 113.525 220.995 113.802C220.691 114.066 220.475 114.359 220.33 114.693C220.179 115.043 220.105 115.405 220.105 115.798C220.105 116.191 220.179 116.553 220.33 116.904C220.475 117.239 220.691 117.53 220.995 117.797C221.311 118.076 221.731 118.302 222.239 118.474C222.778 118.655 223.431 118.748 224.181 118.748C224.931 118.748 225.584 118.655 226.122 118.474V118.476ZM253.869 118.273H243.408V109.144C243.408 108.419 242.824 107.833 242.103 107.833H238.767C238.046 107.833 237.462 108.419 237.462 109.144V122.455C237.462 123.179 238.046 123.765 238.767 123.765H253.867C254.589 123.765 255.173 123.179 255.173 122.455V119.584C255.173 118.86 254.589 118.273 253.867 118.273H253.869ZM276.489 118.157C276.489 119.057 276.247 119.913 275.767 120.701C275.302 121.466 274.604 122.131 273.69 122.676C272.843 123.181 271.789 123.579 270.562 123.856C269.375 124.122 267.965 124.258 266.374 124.258C265.541 124.258 264.677 124.189 263.804 124.053C263.08 123.946 262.261 123.777 261.387 123.553C260.464 123.315 259.555 122.967 258.688 122.517C258.078 122.2 257.815 121.461 258.09 120.83L259.246 118.169C259.391 117.837 259.664 117.58 260.003 117.459C260.131 117.413 260.264 117.387 260.4 117.382C260.15 117.258 259.913 117.118 259.692 116.965C259.082 116.544 258.596 116.012 258.244 115.388C257.881 114.743 257.698 113.992 257.698 113.158C257.698 112.265 257.985 111.424 258.553 110.657C259.063 109.963 259.782 109.365 260.689 108.877C261.532 108.422 262.553 108.062 263.723 107.81C264.862 107.562 266.144 107.438 267.53 107.438C268.359 107.438 269.211 107.5 270.063 107.621C270.782 107.729 271.582 107.881 272.449 108.079C273.375 108.288 274.286 108.598 275.16 109.003C275.784 109.291 276.081 110.018 275.834 110.664L274.83 113.287C274.704 113.618 274.448 113.883 274.125 114.023C274.084 114.04 274.044 114.054 274.004 114.068C274.224 114.185 274.433 114.314 274.628 114.454C275.219 114.881 275.682 115.414 276.005 116.043C276.328 116.672 276.491 117.385 276.491 118.164L276.489 118.157ZM266.453 113.025C267.549 113.075 268.85 113.132 270.35 113.196H270.355C269.899 113.103 269.432 113.027 268.959 112.975C268.463 112.918 267.981 112.889 267.528 112.889C266.821 112.889 266.156 112.922 265.555 112.987C265.833 112.999 266.132 113.013 266.453 113.027V113.025ZM261.909 117.918C262.237 118.049 262.564 118.161 262.89 118.254C263.538 118.435 264.129 118.569 264.641 118.65C265.242 118.74 265.831 118.793 266.386 118.805C268.174 118.805 269.225 118.64 269.838 118.474C269.712 118.466 269.555 118.457 269.368 118.447C268.983 118.428 268.515 118.407 267.96 118.381C267.407 118.357 266.792 118.331 266.116 118.304C265.446 118.281 264.725 118.247 263.974 118.209C263.239 118.171 262.545 118.073 261.907 117.918H261.909Z" fill="#434244"/>
</g>
<path d="M40.5534 118.957C40.2258 119.527 39.8009 120.051 39.2834 120.525C38.7659 121.002 38.1582 121.416 37.4651 121.771C36.7696 122.126 35.9934 122.402 35.1341 122.598C34.2748 122.793 33.3348 122.893 32.3117 122.893C30.8589 122.893 29.5605 122.703 28.4187 122.324C27.2745 121.943 26.3084 121.43 25.5203 120.785C24.7299 120.139 24.1269 119.386 23.7115 118.531C23.2937 117.676 23.0872 116.766 23.0872 115.803C23.0872 114.84 23.2961 113.93 23.7115 113.075C24.1269 112.22 24.7322 111.467 25.5203 110.821C26.3084 110.176 27.2745 109.661 28.4187 109.28C29.5628 108.899 30.8589 108.71 32.3117 108.71C33.2968 108.71 34.2083 108.803 35.0486 108.987C35.8889 109.17 36.6509 109.43 37.3322 109.766C38.0134 110.102 38.614 110.495 39.1315 110.945C39.649 111.395 40.0786 111.886 40.4204 112.42L37.4271 113.94C37.2372 113.623 36.9809 113.325 36.6604 113.046C36.3376 112.768 35.953 112.527 35.5044 112.325C35.0557 112.122 34.5501 111.96 33.9875 111.839C33.425 111.719 32.822 111.657 32.1787 111.657C31.2435 111.657 30.4269 111.769 29.7243 111.991C29.024 112.213 28.4424 112.515 27.9819 112.894C27.5214 113.275 27.1725 113.716 26.9398 114.216C26.7072 114.717 26.5885 115.245 26.5885 115.803C26.5885 116.36 26.7048 116.87 26.9398 117.371C27.1725 117.871 27.5214 118.312 27.9819 118.693C28.4424 119.074 29.024 119.377 29.7243 119.605C30.4245 119.834 31.2435 119.948 32.1787 119.948C32.86 119.948 33.4914 119.882 34.073 119.748C34.6546 119.615 35.1721 119.434 35.6254 119.208C36.0812 118.979 36.4705 118.712 36.8005 118.409C37.128 118.104 37.3749 117.783 37.5387 117.44L40.551 118.96L40.5534 118.957ZM60.8823 122.457L59.3488 119.796H50.0081L48.4746 122.457H44.9306L52.548 109.146H56.8113L64.4287 122.457H60.8847H60.8823ZM54.6868 111.636L51.6555 116.923H57.7181L54.6868 111.636ZM86.3077 118.767C86.3077 119.427 86.1937 119.987 85.9659 120.449C85.738 120.911 85.4318 121.292 85.0472 121.59C84.6627 121.888 84.2069 122.107 83.6823 122.245C83.1577 122.386 82.5927 122.455 81.9874 122.455H69.5584V109.144H81.9874C82.6189 109.144 83.2004 109.218 83.7298 109.363C84.2591 109.508 84.7149 109.735 85.0947 110.037C85.4745 110.342 85.7712 110.731 85.9849 111.207C86.1985 111.684 86.3077 112.255 86.3077 112.927C86.2958 113.332 86.2199 113.721 86.0798 114.088C85.9659 114.404 85.7831 114.721 85.5315 115.038C85.2775 115.355 84.9119 115.615 84.4324 115.817C84.9119 116.046 85.2775 116.327 85.5315 116.663C85.7831 116.999 85.9682 117.325 86.0798 117.642C86.2175 118.009 86.2934 118.383 86.3077 118.764V118.767ZM83.1055 113.232C83.1055 112.927 83.0485 112.687 82.9346 112.51C82.8206 112.332 82.6853 112.203 82.5263 112.12C82.3672 112.036 82.2082 111.984 82.042 111.958C81.8782 111.931 81.7453 111.92 81.6432 111.92H72.8888V114.562H81.6432C81.7192 114.562 81.8355 114.55 81.9946 114.524C82.1536 114.497 82.3126 114.438 82.4788 114.343C82.6426 114.247 82.7874 114.111 82.9156 113.933C83.0414 113.756 83.1055 113.521 83.1055 113.23V113.232ZM83.1055 118.367C83.1055 118.062 83.0485 117.821 82.9346 117.645C82.8206 117.468 82.6853 117.335 82.5263 117.244C82.3672 117.156 82.2082 117.099 82.042 117.073C81.8782 117.047 81.7453 117.035 81.6432 117.035H72.8888V119.677H81.6432C81.7192 119.677 81.8355 119.665 81.9946 119.639C82.1536 119.613 82.3126 119.555 82.4788 119.467C82.6426 119.379 82.7874 119.246 82.9156 119.067C83.0414 118.888 83.1055 118.655 83.1055 118.364V118.367ZM122.192 118.955C121.864 119.524 121.439 120.049 120.922 120.523C120.404 120.999 119.797 121.414 119.104 121.769C118.408 122.124 117.632 122.4 116.773 122.595C115.913 122.791 114.973 122.891 113.95 122.891C112.497 122.891 111.199 122.7 110.057 122.321C108.913 121.94 107.947 121.428 107.159 120.782C106.368 120.137 105.765 119.384 105.35 118.529C104.932 117.673 104.726 116.763 104.726 115.801C104.726 114.838 104.935 113.928 105.35 113.073C105.765 112.217 106.371 111.464 107.159 110.819C107.949 110.173 108.915 109.659 110.057 109.277C111.201 108.896 112.497 108.708 113.95 108.708C114.935 108.708 115.847 108.801 116.687 108.984C117.527 109.168 118.287 109.427 118.971 109.763C119.652 110.099 120.253 110.492 120.77 110.943C121.287 111.393 121.717 111.884 122.059 112.417L119.066 113.938C118.876 113.621 118.619 113.323 118.299 113.044C117.976 112.765 117.592 112.525 117.143 112.322C116.694 112.12 116.189 111.958 115.626 111.836C115.063 111.717 114.461 111.655 113.817 111.655C112.882 111.655 112.065 111.767 111.363 111.989C110.663 112.21 110.081 112.513 109.62 112.892C109.16 113.273 108.811 113.714 108.578 114.214C108.343 114.714 108.227 115.243 108.227 115.801C108.227 116.358 108.343 116.868 108.578 117.368C108.811 117.869 109.16 118.309 109.62 118.691C110.081 119.072 110.663 119.374 111.363 119.603C112.063 119.832 112.882 119.946 113.817 119.946C114.499 119.946 115.13 119.879 115.711 119.746C116.293 119.613 116.811 119.431 117.264 119.205C117.72 118.976 118.109 118.71 118.439 118.407C118.767 118.102 119.013 117.78 119.177 117.437L122.189 118.957L122.192 118.955ZM144.909 115.798C144.909 116.761 144.707 117.671 144.303 118.526C143.9 119.381 143.316 120.132 142.552 120.78C141.787 121.426 140.857 121.94 139.758 122.319C138.659 122.7 137.415 122.888 136.026 122.888C134.638 122.888 133.394 122.698 132.295 122.319C131.196 121.938 130.265 121.426 129.501 120.78C128.736 120.134 128.152 119.381 127.749 118.526C127.345 117.671 127.144 116.761 127.144 115.798C127.144 114.836 127.345 113.926 127.749 113.07C128.152 112.215 128.736 111.462 129.501 110.816C130.265 110.171 131.196 109.656 132.295 109.275C133.394 108.894 134.638 108.706 136.026 108.706C137.415 108.706 138.659 108.896 139.758 109.275C140.857 109.656 141.787 110.168 142.552 110.816C143.316 111.462 143.9 112.215 144.303 113.07C144.707 113.926 144.909 114.836 144.909 115.798ZM141.403 115.798C141.403 115.229 141.291 114.686 141.07 114.173C140.85 113.659 140.515 113.206 140.066 112.813C139.618 112.42 139.055 112.11 138.381 111.881C137.704 111.653 136.919 111.538 136.021 111.538C135.124 111.538 134.338 111.653 133.662 111.881C132.985 112.11 132.425 112.42 131.977 112.813C131.528 113.206 131.193 113.659 130.972 114.173C130.752 114.688 130.64 115.229 130.64 115.798C130.64 116.368 130.749 116.911 130.972 117.423C131.193 117.938 131.528 118.39 131.977 118.783C132.425 119.177 132.988 119.486 133.662 119.715C134.338 119.944 135.124 120.058 136.021 120.058C136.919 120.058 137.704 119.944 138.381 119.715C139.057 119.486 139.618 119.177 140.066 118.783C140.515 118.39 140.85 117.938 141.07 117.423C141.291 116.908 141.403 116.368 141.403 115.798ZM163.531 122.455L153.943 113.156V122.455H150.608V109.144H153.943L163.531 118.443V109.144H166.866V122.455H163.531ZM181.947 112.015V122.455H178.63V112.015H172.663V109.144H187.914V112.015H181.947ZM209.969 113.516C209.969 114.1 209.893 114.612 209.741 115.057C209.589 115.503 209.39 115.884 209.145 116.208C208.898 116.532 208.621 116.801 208.312 117.016C208.003 117.232 207.69 117.402 207.374 117.53L209.686 122.455H206.123L204.001 117.909H197.049V122.455H193.713V109.144H205.63C205.983 109.144 206.411 109.208 206.909 109.335C207.408 109.461 207.885 109.687 208.341 110.009C208.796 110.333 209.181 110.776 209.497 111.341C209.812 111.905 209.971 112.632 209.971 113.518L209.969 113.516ZM206.634 113.516C206.634 113.199 206.577 112.942 206.463 112.746C206.349 112.551 206.211 112.398 206.045 112.289C205.879 112.179 205.713 112.108 205.544 112.07C205.373 112.032 205.238 112.012 205.136 112.012H197.046V115.036H205.136C205.212 115.036 205.331 115.014 205.497 114.969C205.661 114.924 205.829 114.845 206 114.731C206.171 114.617 206.318 114.462 206.446 114.264C206.572 114.069 206.636 113.816 206.636 113.513L206.634 113.516ZM233.063 115.798C233.063 116.761 232.862 117.671 232.458 118.526C232.054 119.381 231.47 120.132 230.706 120.78C229.942 121.426 229.011 121.94 227.912 122.319C226.813 122.7 225.569 122.888 224.181 122.888C222.792 122.888 221.548 122.698 220.449 122.319C219.35 121.938 218.42 121.426 217.655 120.78C216.891 120.134 216.307 119.381 215.903 118.526C215.5 117.671 215.298 116.761 215.298 115.798C215.298 114.836 215.5 113.926 215.903 113.07C216.307 112.215 216.891 111.462 217.655 110.816C218.42 110.171 219.35 109.656 220.449 109.275C221.548 108.894 222.792 108.706 224.181 108.706C225.569 108.706 226.813 108.896 227.912 109.275C229.011 109.656 229.942 110.168 230.706 110.816C231.47 111.462 232.054 112.215 232.458 113.07C232.862 113.926 233.063 114.836 233.063 115.798ZM229.557 115.798C229.557 115.229 229.446 114.686 229.225 114.173C229.004 113.659 228.669 113.206 228.221 112.813C227.772 112.42 227.21 112.11 226.535 111.881C225.859 111.653 225.073 111.538 224.176 111.538C223.279 111.538 222.493 111.653 221.816 111.881C221.14 112.11 220.58 112.42 220.131 112.813C219.682 113.206 219.348 113.659 219.127 114.173C218.906 114.688 218.795 115.229 218.795 115.798C218.795 116.368 218.904 116.911 219.127 117.423C219.348 117.938 219.682 118.39 220.131 118.783C220.58 119.177 221.142 119.486 221.816 119.715C222.493 119.944 223.279 120.058 224.176 120.058C225.073 120.058 225.859 119.944 226.535 119.715C227.212 119.486 227.772 119.177 228.221 118.783C228.669 118.39 229.004 117.938 229.225 117.423C229.446 116.908 229.557 116.368 229.557 115.798ZM238.765 122.455V109.144H242.1V119.584H253.867V122.455H238.767H238.765ZM275.181 118.157C275.181 118.817 275.003 119.439 274.649 120.02C274.296 120.604 273.752 121.114 273.021 121.552C272.29 121.99 271.373 122.331 270.274 122.579C269.175 122.827 267.875 122.95 266.372 122.95C265.6 122.95 264.812 122.886 264.003 122.76C263.307 122.657 262.543 122.5 261.71 122.283C260.877 122.069 260.067 121.757 259.284 121.352L260.44 118.691C261.135 119.046 261.833 119.322 262.534 119.517C263.234 119.713 263.87 119.856 264.437 119.944C265.107 120.046 265.75 120.103 266.37 120.115C268.264 120.115 269.676 119.944 270.604 119.601C271.533 119.258 271.998 118.81 271.998 118.25C271.998 117.895 271.853 117.635 271.561 117.471C271.271 117.306 270.823 117.211 270.215 117.185C270.075 117.173 269.814 117.156 269.429 117.137C269.045 117.118 268.572 117.097 268.017 117.07C267.461 117.044 266.842 117.02 266.161 116.994C265.479 116.968 264.772 116.937 264.039 116.899C263.305 116.861 262.633 116.761 262.021 116.594C261.408 116.43 260.877 116.191 260.43 115.882C259.982 115.572 259.63 115.191 259.379 114.74C259.125 114.29 258.999 113.761 258.999 113.151C258.999 112.541 259.198 111.97 259.595 111.431C259.994 110.893 260.561 110.423 261.299 110.023C262.037 109.623 262.935 109.311 263.989 109.082C265.043 108.853 266.222 108.739 267.523 108.739C268.295 108.739 269.076 108.796 269.873 108.91C270.555 109.013 271.316 109.158 272.157 109.349C272.997 109.539 273.814 109.818 274.611 110.185L273.607 112.808C273.215 112.644 272.774 112.484 272.28 112.332C271.786 112.179 271.274 112.046 270.737 111.931C270.201 111.817 269.657 111.729 269.109 111.665C268.561 111.6 268.031 111.569 267.526 111.569C266.768 111.569 266.063 111.605 265.413 111.674C264.763 111.743 264.198 111.848 263.718 111.989C263.239 112.129 262.861 112.298 262.591 112.503C262.32 112.706 262.182 112.934 262.182 113.187C262.182 113.516 262.32 113.764 262.6 113.928C262.878 114.092 263.288 114.188 263.832 114.214C264.437 114.24 265.292 114.278 266.389 114.328C267.488 114.378 268.788 114.435 270.291 114.5C271.048 114.538 271.727 114.64 272.328 114.805C272.928 114.969 273.439 115.205 273.861 115.508C274.284 115.813 274.609 116.187 274.837 116.63C275.065 117.073 275.179 117.58 275.179 118.152L275.181 118.157Z" fill="white"/>
<path opacity="0.6" d="M298 0H0V75.6342H298V0Z" fill="url(#paint10_linear_8_354)"/>
<path d="M19.7094 92.364V17.5493H278.461V92.364H19.7094ZM280.123 15.8816H18.0477V94.0317H280.123V15.8816Z" fill="url(#paint11_linear_8_354)"/>
<defs>
<linearGradient id="paint0_linear_8_354" x1="12.2795" y1="55.5641" x2="286.454" y2="55.5641" gradientUnits="userSpaceOnUse">
<stop offset="0.24" stop-color="white" stop-opacity="0"/>
<stop offset="0.36" stop-color="white" stop-opacity="0.01"/>
<stop offset="0.47" stop-color="white" stop-opacity="0.06"/>
<stop offset="0.58" stop-color="white" stop-opacity="0.13"/>
<stop offset="0.68" stop-color="white" stop-opacity="0.23"/>
<stop offset="0.79" stop-color="white" stop-opacity="0.37"/>
<stop offset="0.89" stop-color="white" stop-opacity="0.53"/>
<stop offset="0.98" stop-color="white" stop-opacity="0.72"/>
<stop offset="1" stop-color="white" stop-opacity="0.75"/>
</linearGradient>
<linearGradient id="paint1_linear_8_354" x1="150.912" y1="59.2143" x2="150.912" y2="86.1054" gradientUnits="userSpaceOnUse">
<stop stop-color="#A6A8AA"/>
<stop offset="0.18" stop-color="#5F6062"/>
<stop offset="0.38" stop-color="#6D6E70"/>
<stop offset="0.48" stop-color="#59595B"/>
<stop offset="0.66" stop-color="#7D7D7D"/>
<stop offset="0.83" stop-color="#59595B"/>
<stop offset="1" stop-color="#59595B"/>
</linearGradient>
<linearGradient id="paint2_linear_8_354" x1="45.2841" y1="6673.73" x2="48.7056" y2="9842.76" gradientUnits="userSpaceOnUse">
<stop stop-color="#A6A8AA"/>
<stop offset="0.18" stop-color="#5F6062"/>
<stop offset="0.38" stop-color="#6D6E70"/>
<stop offset="0.48" stop-color="#59595B"/>
<stop offset="0.66" stop-color="#7D7D7D"/>
<stop offset="0.83" stop-color="#59595B"/>
<stop offset="1" stop-color="#59595B"/>
</linearGradient>
<linearGradient id="paint3_linear_8_354" x1="149.087" y1="0.364502" x2="149.087" y2="141" gradientUnits="userSpaceOnUse">
<stop stop-color="#D9DADB"/>
<stop offset="0.12" stop-color="#96989A"/>
<stop offset="0.27" stop-color="#929496"/>
<stop offset="0.38" stop-color="#A6A8AA"/>
<stop offset="0.48" stop-color="#858789"/>
<stop offset="0.66" stop-color="#BBBCBF"/>
<stop offset="0.73" stop-color="#B0B2B4"/>
<stop offset="0.86" stop-color="#929496"/>
<stop offset="1" stop-color="#59595B"/>
</linearGradient>
<linearGradient id="paint4_linear_8_354" x1="149.084" y1="2.03223" x2="149.084" y2="139.332" gradientUnits="userSpaceOnUse">
<stop stop-color="#434244"/>
<stop offset="0.18" stop-color="#808183"/>
<stop offset="0.38" stop-color="#6D6E70"/>
<stop offset="0.48" stop-color="#59595B"/>
<stop offset="0.68" stop-color="#434244"/>
<stop offset="0.81" stop-color="#59595B"/>
<stop offset="1" stop-color="#434244"/>
</linearGradient>
<linearGradient id="paint5_linear_8_354" x1="149.084" y1="2.03223" x2="149.084" y2="139.332" gradientUnits="userSpaceOnUse">
<stop stop-color="#434244"/>
<stop offset="0.18" stop-color="#808183"/>
<stop offset="0.38" stop-color="#6D6E70"/>
<stop offset="0.48" stop-color="#59595B"/>
<stop offset="0.68" stop-color="#434244"/>
<stop offset="0.81" stop-color="#59595B"/>
<stop offset="1" stop-color="#434244"/>
</linearGradient>
<linearGradient id="paint6_linear_8_354" x1="30863.8" y1="4612.78" x2="271527" y2="4612.78" gradientUnits="userSpaceOnUse">
<stop stop-color="#A6A8AA"/>
<stop offset="0.18" stop-color="#5F6062"/>
<stop offset="0.38" stop-color="#6D6E70"/>
<stop offset="0.48" stop-color="#59595B"/>
<stop offset="0.66" stop-color="#7D7D7D"/>
<stop offset="0.83" stop-color="#59595B"/>
<stop offset="1" stop-color="#59595B"/>
</linearGradient>
<linearGradient id="paint7_linear_8_354" x1="151197" y1="3028.51" x2="151197" y2="6197.32" gradientUnits="userSpaceOnUse">
<stop stop-color="#A6A8AA"/>
<stop offset="0.18" stop-color="#5F6062"/>
<stop offset="0.38" stop-color="#6D6E70"/>
<stop offset="0.48" stop-color="#59595B"/>
<stop offset="0.66" stop-color="#7D7D7D"/>
<stop offset="0.83" stop-color="#59595B"/>
<stop offset="1" stop-color="#59595B"/>
</linearGradient>
<linearGradient id="paint8_linear_8_354" x1="150.129" y1="28.7756" x2="150.129" y2="84.3518" gradientUnits="userSpaceOnUse">
<stop stop-color="#BFBFBF"/>
<stop offset="0.1" stop-color="#E8E8E8"/>
<stop offset="0.15" stop-color="#EBEBEB"/>
<stop offset="0.3" stop-color="#BDBDBD"/>
<stop offset="0.48" stop-color="#EDEDEE"/>
<stop offset="0.66" stop-color="#C2C2C2"/>
<stop offset="0.73" stop-color="#E3E3E3"/>
<stop offset="0.86" stop-color="#D8D9DA"/>
<stop offset="1" stop-color="#D0D1D3"/>
</linearGradient>
<linearGradient id="paint9_linear_8_354" x1="160047" y1="7708.99" x2="160047" y2="8902.57" gradientUnits="userSpaceOnUse">
<stop stop-color="#D9DADB"/>
<stop offset="0.12" stop-color="#96989A"/>
<stop offset="0.27" stop-color="#929496"/>
<stop offset="0.38" stop-color="#A6A8AA"/>
<stop offset="0.48" stop-color="#858789"/>
<stop offset="0.66" stop-color="#BBBCBF"/>
<stop offset="0.73" stop-color="#B0B2B4"/>
<stop offset="0.86" stop-color="#929496"/>
<stop offset="1" stop-color="#59595B"/>
</linearGradient>
<linearGradient id="paint10_linear_8_354" x1="187055" y1="0" x2="187055" y2="24010.8" gradientUnits="userSpaceOnUse">
<stop offset="0.24" stop-color="white" stop-opacity="0"/>
<stop offset="0.36" stop-color="white" stop-opacity="0.01"/>
<stop offset="0.47" stop-color="white" stop-opacity="0.06"/>
<stop offset="0.58" stop-color="white" stop-opacity="0.13"/>
<stop offset="0.68" stop-color="white" stop-opacity="0.23"/>
<stop offset="0.79" stop-color="white" stop-opacity="0.37"/>
<stop offset="0.89" stop-color="white" stop-opacity="0.53"/>
<stop offset="0.98" stop-color="white" stop-opacity="0.72"/>
<stop offset="1" stop-color="white" stop-opacity="0.75"/>
</linearGradient>
<linearGradient id="paint11_linear_8_354" x1="149.084" y1="15.8816" x2="149.084" y2="94.0317" gradientUnits="userSpaceOnUse">
<stop stop-color="#7C7D80"/>
<stop offset="0.14" stop-color="#929496"/>
<stop offset="0.27" stop-color="#B0B2B4"/>
<stop offset="0.34" stop-color="#BBBCBF"/>
<stop offset="0.52" stop-color="#858789"/>
<stop offset="0.62" stop-color="#A6A8AA"/>
<stop offset="0.73" stop-color="#929496"/>
<stop offset="0.88" stop-color="#96989A"/>
<stop offset="1" stop-color="#B5B6B8"/>
</linearGradient>
</defs>
</svg>
